/* XPM */
static char *e1888c030e3d4e75b980a781c3f28e6cWQwjzBbARYIwOlYc[] = {
/* columns rows colors chars-per-pixel */
"64 64 254 2 ",
"   c #151109",
".  c #322D0C",
"X  c #3C352E",
"o  c #44381F",
"O  c #443B26",
"+  c #463E34",
"@  c #3C4420",
"#  c #6D5517",
"$  c #745A18",
"%  c #6C510C",
"&  c #4B4639",
"*  c #585339",
"=  c #534A2C",
"-  c #735B2A",
";  c #685837",
":  c #735B38",
">  c #6B5728",
",  c #7D6628",
"<  c #73653A",
"1  c #6C5711",
"2  c #534B45",
"3  c #595549",
"4  c #525052",
"5  c #675C49",
"6  c #665D52",
"7  c #745944",
"8  c #6B6543",
"9  c #786B46",
"0  c #7A7248",
"q  c #6A6657",
"w  c #766858",
"e  c #797959",
"r  c #79746A",
"t  c #6C6D64",
"y  c #5E6151",
"u  c #8A6F18",
"i  c #977B29",
"p  c #897031",
"a  c #877748",
"s  c #947C46",
"d  c #847A56",
"f  c #8C714D",
"g  c #877C68",
"h  c #8D7466",
"j  c #7E826D",
"k  c #7A8352",
"l  c #978C1C",
"z  c #9B842A",
"x  c #998536",
"c  c #9E9425",
"v  c #A28A2D",
"b  c #A69929",
"n  c #A78A38",
"m  c #B58A3C",
"M  c #AB9C33",
"N  c #A89636",
"B  c #B3993C",
"V  c #B6962B",
"C  c #B8A23D",
"Z  c #AAA031",
"A  c #B1901D",
"S  c #C4983D",
"D  c #C8A93A",
"F  c #D3AD39",
"G  c #D5B53C",
"H  c #CBB036",
"J  c #9A864A",
"K  c #88845B",
"L  c #9A8754",
"P  c #A58B46",
"I  c #B88D46",
"U  c #AB9647",
"Y  c #B79947",
"T  c #A58C57",
"R  c #A79558",
"E  c #B69A56",
"W  c #B28E55",
"Q  c #BBA449",
"!  c #BBA658",
"~  c #ACA04D",
"^  c #898764",
"/  c #958B67",
"(  c #979368",
")  c #898876",
"_  c #999778",
"`  c #918E76",
"'  c #AB9866",
"]  c #B89B66",
"[  c #A79C76",
"{  c #A28879",
"}  c #BAA668",
"|  c #BDB36A",
" . c #A9A57B",
".. c #BAA877",
"X. c #BCB479",
"o. c #C38E44",
"O. c #C39344",
"+. c #CA9345",
"@. c #C49C45",
"#. c #C7994A",
"$. c #C59C56",
"%. c #C4A444",
"&. c #C5AC44",
"*. c #CBAC45",
"=. c #C4AC4C",
"-. c #CAAB4C",
";. c #C6A44C",
":. c #D4AC48",
">. c #CCB24C",
",. c #C9B147",
"<. c #D2B44C",
"1. c #D8B749",
"2. c #C4AC52",
"3. c #CBAC54",
"4. c #CBAD5A",
"5. c #C5A75A",
"6. c #D5AD59",
"7. c #CCB354",
"8. c #CCB35C",
"9. c #C8B558",
"0. c #D3B453",
"q. c #D4B954",
"w. c #DBBB54",
"e. c #D3B45C",
"r. c #D4BA5B",
"t. c #DBBC5C",
"y. c #D9B658",
"u. c #E1BC4D",
"i. c #E1BE53",
"p. c #C69F63",
"a. c #C3AB64",
"s. c #C8A869",
"d. c #D3AB67",
"f. c #CCB464",
"g. c #CAB56B",
"h. c #CDBA6B",
"j. c #C7B568",
"k. c #D4BC64",
"l. c #DBBD62",
"z. c #D3BC6B",
"x. c #D6B96A",
"c. c #CBAD74",
"v. c #C8AA76",
"b. c #CBB473",
"n. c #CDBB73",
"m. c #C9B679",
"M. c #D3BD72",
"N. c #D3B979",
"B. c #D3AD72",
"V. c #E1BE69",
"C. c #E1BB76",
"Z. c #DBC15A",
"A. c #DEC34E",
"S. c #E2C35B",
"D. c #DDC265",
"F. c #D7C26A",
"G. c #D8C478",
"H. c #E4C76F",
"J. c #9A9684",
"K. c #989A92",
"L. c #A39989",
"P. c #A7998E",
"I. c #99A894",
"U. c #A7A789",
"Y. c #BAB689",
"T. c #A9A895",
"R. c #B6AA97",
"E. c #AAB49A",
"W. c #B9B896",
"Q. c #B5AC87",
"!. c #99B1A7",
"~. c #B5ADA4",
"^. c #A5B7A8",
"/. c #B9B8A7",
"(. c #A8BCB5",
"). c #AFB0AC",
"_. c #C8B888",
"`. c #D6BB86",
"'. c #C4BB94",
"]. c #CABC98",
"[. c #D3BD92",
"{. c #CAAC89",
"}. c #C5B9A4",
"|. c #C7BBB1",
" X c #E0BC8C",
".X c #B5C79A",
"XX c #B9C2A9",
"oX c #ACC2B6",
"OX c #B9C7B7",
"+X c #BACFAD",
"@X c #CAC28A",
"#X c #D9C587",
"$X c #CBC395",
"%X c #CCC39C",
"&X c #C5C69B",
"*X c #D3C49E",
"=X c #D8C899",
"-X c #DBD19D",
";X c #C9D39F",
":X c #E2CB89",
">X c #E3CC94",
",X c #E5D299",
"<X c #CCCCA4",
"1X c #C8C6A7",
"2X c #D3C6A2",
"3X c #D5CCA4",
"4X c #DCCEA5",
"5X c #D4CDAB",
"6X c #DCCEAB",
"7X c #D8C6AA",
"8X c #DCD1A5",
"9X c #D4D3AB",
"0X c #DCD1AA",
"qX c #D7D4A7",
"wX c #C6CAB7",
"eX c #D3CEB2",
"rX c #D8CBB6",
"tX c #C7D6B8",
"yX c #D6D1B4",
"uX c #DBD3B3",
"iX c #D8D7B8",
"pX c #CCD1A9",
"aX c #E1CEAA",
"sX c #E1CCA4",
"dX c #E2D3AB",
"fX c #E4D5A7",
"gX c #E2D3B1",
"hX c #E6D7BA",
"jX c #ECD6B6",
"kX c #F2E3B5",
"lX c #B6CAC3",
"zX c #B6CBC8",
"xX c #BBD2CB",
"cX c #B3CDCB",
"vX c #C7D5C4",
"bX c #D8D6C8",
"nX c #C6D9D8",
"mX c #DADBD3",
"MX c #CECAC2",
"NX c #E5DAC8",
"BX c #E2DAD0",
"VX c #EAE5D9",
"CX c #F8E9DA",
"ZX c #F9F5DC",
"AX c #F2E6C8",
"SX c #F7ECE4",
"DX c #FBF3E5",
"FX c #FDF5EC",
"GX c #FDFBEC",
"HX c #F8F5E7",
"JX c #FDFCF2",
"KX c #FFFAF9",
"LX c #E9E7E2",
"PX c #D4E5DF",
/* pixels */
"| @XvXcXnXmXiX0XgXgXqX8XdXgXgX0XdX0X4X5X<X5XfX#XO.@.@.@.#.;.:.:.:.y.t.y.V.t.t.i.i.i.u.u.u.u.u.y.u.i.V.t.l.t.t.w.1.G w.q.<.<.1.A.",
"| $XvXzXnXnX5XdX6X0X3X-X0X0XgXgXqXdXdX0X1X1XsX`.O.O.#.;.#.+.#.6.:.y.t.t.t.V.V.t.w.i.u.w.1.u.u.1.1.y.t.y.y.y.w.q.A.G q.>.q.q.<.<.",
"| @XwXlXPXmXpX8XgXaX8X3X6X6X0X0X0XdX7X5XeX1X8X`.I I O.$.$.#.$.3.6.6.l.t.y.t.t.t.t.t.i.t.w.y.y.y.w.y.y.y.y.w.r.q.<.A.Z.7.0.e.t.D.",
"@X@X.XoXvXbX9X3X2X2X$X$X].].%X$X'.*X$X2X1X1X2X#X$.p.p.s.B.d.d.d.x.l.F.F.l.D.l.V.l.V.D.V.V.t.t.i.i.w.t.l.t.t.t.w.A.<.C r.D.l.M.H.",
"fX@X.X+XOXvX9X_.].%X'.'.'.].].].'.}.[.3X1XeX2X[.B.B.{.B.B.v.c.s.g.} h.k.F.F.D.x.F.H.M.D.k.k.k.Z.t.t.Z.D.Z.t.t.t.S.&.B B N z.G.:X",
"sXY.;X;XvXtX9X_.].%X'.'.'.'.'.'.'.]._.%X1X<X$Xv.v.v.{.{.h W } W ] T P J g.F.x.F.x.D.C.x.z.k.Z.Z.Z.t.t.D.Z.w.r.t.t.%.0.U $ 8.:X>X",
"fXW.;X+XtXiXqX-XsX7X3X2X2X2X*X*X2X2X2X*XW.W.%X_.{. X{.] h T ' R ' s J , 5.G.G.F.z.z.z.z.k.k.j.F.z.D.k.Z.A.A.r.r.D.%.Y =.N 5.`.:X",
"6X$X;X.X+XtXqX8XsX6X6X6X0X0X8X0X6X6X4X$X.XW.3X[.B. X{.{ p.] T L ' L T , } M.F.z.z.z.k.k.z.z.F.F.G.M.z.k.r.q.w.l.t.D.u i Y ! >X=X",
"dX.X.X.X+XiX0X-X4X7X6X6X6X5X4X4X6XgX7X*X<X.X3X_.c.{.v...' L R J R L L p a.M.x.z.F.z.z.z.n.n.b.G.m.G.n.G.q.Z.q.r.t.l.=.8.Z.| #X=X",
"0X.X.X.XtXtX4X8XsX6X6X9X6X6X4X8X6X2X4X*X<X<X;X`.} c._.' ' R x ! E P J E g.M.B.z.z.F.z.h.N.} > 0 0 > ..h.F.D.0.r.r.t.7.v 2.F.:X#X",
"uX.X.XE.+XtX3X8XsX6X6X6X6X0X4X4X0X6X8X8XE.U.;X_.] E R L | ~ x } 9.Y U ! g.M.z.z.F.h.n.N.} ; 7 ` = = = m.F.F.Z.q.q.q.z u l Z.n.-X",
"6X1XE.!.+XbX9X-X6X6X6X6X5X5X4X8X0X4X2X2X` K 4X_.s.W J ' X.| ~ U ! ~ U Y 4.f.z.f.n.g.#XX.9 g g P.3 * X 0 G.9.r.Z.t.%.Y l.N Q :X#X",
"5XXXE.I.(.vX0X4X0XaX0X5X6X7X8X8X5X0X2X5X_ ` 6X_.s.p.W m.} ! U n U ~ U U f.f.k.g.g.G.@XK ; ) r K.8 & 3 = ! F.9.7.y.3.Y H.~ ~ F.-X",
"0XXX!.(.cXvX5X-XaX6X8X8X6X6X4X8X4X0XdX5XE.R.1X`.s.c.s.v.} g.E P R a.! a.x.z.a.n.N.@X..= 5 q t T.t 4 3 X K G.r.q.w.;.v Y z ! G.#X",
"uXOX!.cXxXvX9X4X6XgX8X0X6X6X4X8X4X3X0X5XK.E.}.{.s.d.s.| s.a.W P J } N.5.5.h.j.n.N._.K o * r t ^.j 4 4 + > | 8.t.t.6.Y u U k.G.:X",
"yX(.(.cXcXbX9X4X6X6X6X4X6X4X4X8X8X4XgXeXr _ rX[.s.s.c.c.W p P p - s v.L P ! z.g._._.* = q t r oX4 4 4 2 = } D.0.q.k.x.! k.h.G.=X",
"eX1X(.cXxXvXeXaX0XsX0X0X4X4X8X8XqX8XuX1XJ.U.]._.p.d.B.v.' ] s p L a ..R ' ! z.h.m.Q.+ 4 t X t (.  4 2 4 X R j.Z.r.r.z % x z.N.>X",
"yX/.(.cXzXvXeX6X0XsX0X8X6X8X8X8X*XqXuXyXE.E.]._.B.s.p.] ] T T J a K X.L T } g.a.`./ X y q y ~.FX).2 2 & X / F.9.q.Q U F.n a.`.>X",
"yX|.(.cXlXvXeX4X4X4X0X8X4X4X8X8X8X0X0X5XW.W.%X=Xs.d.B.c.v.f W T , ' ' a p ' G.g.m./ X 4 t bXJXFXKX).+ & X K h.q.q.%.! F.;.Y N.:X",
"rXXXoXxXlXvXuX6X0X4X4X0XqX4X4X0X4X0X6X0X1X&X%X[.s.s.a.g.] f T T ' L X.} T ! h.j.N.9 & 4 +XGXJXJXJXBXw & & 8 G.7.>.-.x 2.n f.M.>X",
"yX}.(.cXOXtXrX6XsX0X8X8X6X8X0XsXsXdX4X0X9X<X%X[.p.d.d.s.L p p s L ' } R m.G.h.j.m.0 & y LXHXHXGXGXbXJ.& + ; j.9.<.7.c 1 N k.M.:X",
"iXXX(.cXlXlXyX8X8X0X6X0X8X4X8X8XaXdX=X4XpXpX2X>Xp.p.d.j.m...' R , J m.J p | h.n._.d   K.HXHXHXGXDXNX_ 2 & ; ! q.3.7.f.Q z.e.z.G.",
"yX1X(.lXlXvXeX0X4XsX4X0X4X4X8X0X7XaXaXdX1X%X2X[.p.d.a.a.v.....} s.} g.b.g.F.z.g._.f   (.GXHXGXFXDXbXT.5 & = a.9.3.e.z 1 z k.M.G.",
"yXXX^.lXlXvX5X4X4X4X0XqX6X8X8X8XdXaX4X2XU.W.2X#XE s.5.a.b.c.] E ! a.b.n.g.h.f.n._.w   (.JXGXDXFXDXBXP.q 2 = j.=.7.;.z ! z 2.k.:X",
"eXwX^.lXlXtXiX4X4X4X0X0X0X4X4XdX4X4XgX7XU.E.$X#XP $.p.c.B.{.c.W E 5.c.b.h.f.k.h.m.9   T.FXJXDXGXSXVX|.6 2 = } 7.e.@.! h.Q U G.G.",
"yXXX!.oXlXOXyX4X4X4X6X8X6X8XsX8X8XdX7XeXU.E.*X#Xs #.p.s.v.s.5.E 5.j.d.g.k.k.F.g.G.0   (.KXGXGXSXFXSX~.w & o } 8.e.E N j.x Q n.:X",
"iX+X^.(.OXOX9X8X4X4X4X8X4X4X4X8X8X0XeXrX` ` 6X#XW E s.d.c.s.! ~ ;.k.j.g.8.k.k.f.@X0   MXPXT.VXVXbX) 6 r 3 O } 4.4.x.i $ x g.j.#X",
"eXwXoX!.(.+XiX3X-X4X4X6X6X8X4X4X8X0XuXiX) ) 5X[.$.$.$.E s.f.E Q ! f.g.g.8.7.8.F.m.L X VXmXL.r BXg P.T.3 6 o R 8.e.4.j.E 5.5.N.:X",
"W./.oX!.oXXXuX8X4X4X4X8X6X4X4X8X8X0X6XrXE.U.2X[.s.$.E n E 5.9.9.2.f.g.g.8.Q q.F.N.' 5 mXSXMXh |.g ).P.4 6 o x 8.e.8.Q , U 9.N...",
"W.E.oXoX^.XXyX8X4X=X6X4X4X4X4XdXfX0XaX1XL.T.7X2Xp.d.5.n U ! Q 9.8.h.g.z.r.>.7.k.M.L g VX).X P.LX) r 2 6 q = P 8.e.4.x E x a.} m.",
"'.E.OXnXoXXXpX8X4X-X4X0X6XsX8X8XdX4XdX5X_ U.7X[.W $.E N M ~ Z Z 9.F.n.h.t.7.q.l.M._.P.SXmXT.MXSX|.CX|.~.q = J r.l.Y 2.G.5.! b.v.",
"W.E.OXxX!.+XyX3XsX4XaX4X8X8X0XdX8X4X4XgX.X<X6X..W 5.B N C M M M ~ 9.h.g.q.0.w.k.z.#XR.SXKXLXSXFXVXSXCX|.w = U 8.e.=.U z.U ! b...",
"$X.X+XvX^.W.gXsXsXsX4X8X8X0XaXdX8X8X0X5X3X2XsX] W Y M N N N c b Z Q f.8.,.,.0.k.f.N.W.SXDXDXGXJXmXSXCXP.w > E f.2.7.i u v f.b.m.",
"Y.U.I.tX.X}.gXsXsX4X-X8X8XsX6X6X8X0X0X0X&X2X[.v.E Q M Z N N Z Z Z Q 8.9.,.<.r.k.8.m.7XCXDXFXFXHXrXSXNX{ 7 > } g.8.7.%.V :.d.b...",
"1XE.U.+X^.1X6XaXsX4X-XqXqXsX8X0X4X8X3X9X&XqXsX:XE B Z b c N b Z Z Q 9.2.>.q.q.r.r.g.kXSXDXFXDXJX~.NX|.h ; f n.! 2.2.>.-.-.8.v._.",
"yX1X^.oX^.XXrX6XaX0XqXqXqX8X8XfX8X3X4X6X.X].-X_.m v b b c N Z b M Q 9.4.7.q.q.>.e.x.AXSXCXDXSXFXR.}.}.h : a n.9.2.2.7.4.&.-.#X,X",
"iXwXoXoX(.wXrX6XaX6X0XqXqX-X8XqX4X3X8X<XU.Y.4Xv.x b b b b V Z M C =.8.8.e.t.w.<.7.k.jXAXSXFXbXL.3 { R.f 7 f h.! f.Q E 4.q.7.#X=X",
"eXwXlXlXlXwXrX6X0X0XqX3X-X8X8X8X4X4X0X5X` T.5XX.x b b b b b C C Q 7.f.e.e.q.1.1.w.f.N.aXCXGXNX{ 2 P.P.7 f p.f.Q ! i u n >.9.#X#X",
"iXwXxXcXlXOXyX6X0X6X8XqXqX-X8X8X8XdX8X<X` E..XR b b b c A b C ;.=.7.8.e.8.>.,.1.q.k.B. XNXSXFXDX}.}.{ f h d.$.7.N # - $ Q ! :X>X",
"0X1XxXnXcXOXeX6X6X6X8XqX8X8XsX8X8X8X0X<XT.W..XJ Z Z c b b c M =.Q 2.7.8.0.,.D H w.r.d. XNXSXDXCXjXR.{ 7 f p.7.B , # , $ z 9.z.:X",
"0X<XOXnXxXOXyX0X6X6X0X4X8XsXdX4XdXdXqX9XT.E.W.J Z Z c c b b n ;.2.2.q.>.7.*.<.<.<.l.e.b.jXCXrXL.w g h ; U ! >.M % > - - u $.M.:X",
"@XW.XXnXxXwX9X4XaXaX6X0X-XfXdXdXsX4XgX9X` U..XR ~ b l c b V N Q 4.3.=.&.q.<.<.q.0.w.0.g.aXhXR.NXg 7 w ; U >.&.B # - : : - ] 8.e.",
"| Y.+XnXlXtX0X8X6X4X7X4X8X-X4X6XdX4XdX<Xj U.9X} ~ v l c b C B ;.2.4.;.C q.q.6.y.t.0.q.h.].|.NXR.9 5 q 9 ~ Q D N % > : p - } 3.<.",
"b.Y.OXnXOXwX9X8XsXdXaX6X-XfX4X0X6XsX0X9XW.1XqXX.~ c l v b S B ;.4.4.-.>.D i i 3.l.0.7.z.Q.7XVX1Xh w w < ! Q ,.n % > > : # E r.1.",
"j.X./.nXlXOX9X-X4X6X6X4X-X-X8X4X4XsX-X9XpXqXqXm.E x b b v m n B n Y Y Y B v v 4.e.r.-.z.].~.VXGXiXq w * ~ 9.2.B % - - - # E <.1.",
"b._.(.nXcXOXpX-X4X6X6X4X-X-X3X3X4X6X4X9X.X;X0X#XU N M N i i i m v Y N n B B U 5.e.r.0.M.AX~.BXDXrXw 6 7 ' a.2.Q $ # , - , ! :.1.",
"b.Y.OXnXlXOX9X-X0X8X5X8X-X-X-X9X4X4X8X0X;X$XfX#XW N N B m o.U Y m m U 5.Y i i g.l.k.8.,XCXMXL.|.) w 6 g ' } 5.;., % > # i 3.F 1.",
"j._.OXnXcXOX<X$X0X%X%X-X-X$X&X-X3X*X].-X;X.X=X=XE Y N Y #.$.#.@.;.3.3.4.;.N P s.e.r.a.kXSXSXg r w 6 6 _ / X.j.;.i % p $ P 3.F G ",
"b._.OXnXcXI.8 < ;X ..  .qXK @ @X;X; > .XU.@ k @XE ;.Y I 3.#.#.%.-.>.-.y.0.7.Q Z.9.F.@XHXFXKXrX* 6 q t P.J. .h.9.Q $ u p #.:.D F ",
"} @XvXnXcXJ.k ^ +Xk k K .X0 k ( .X< 0  .k 8 k X.E $.I O.#.@.#.;.*.:.;.:.<.q.A.9.Z.| fXGXFXLXCX_ 5 5 J.T.J.` ' j.3.V i I ;.:.F G ",
"j.Y.oXPXxXI.tX9X;XK ;X/  .( .XK _ Q.'./ t U. .' 5.Y I $.#.I #.%.&.-.%.0.0.w.Z.9.| qXCXFXKXFXSXwXg 6 K.).T.J./ v.4.w.:.S.G F F F ",
"j.Y.vXxXnXI.U.&XW.K ;X/ K | .XL ( Y.Y.( j I._ R $.m I $.O.S @.@.%.*.%.:.q.w.Z.9.#XZXDXLXKXKXmXNXP.g |.).T.P._ v.j.Y D D F F F G ",
"F.X.bXvXzX!.. _ W./ 4X/ (  .$XK ^ W.'.` 3 T.Q.s ] m I $.+.I @.%.C D C ,.A.9.Z.F.kXZXPXVXLXKXVXbXR.~.bX).T.T.T.}...n V A A S D G ",
"9.m.wXMXOXK.` e  .( 5X^ k  .=XK K Y.%Xd & U.U.L $.I o.$.O.O.@.%.D H D H H ! 9.@XZXAXmXmXmXGXHXwX/.MXMX~.K.)././.Y.j.>.1.F F F G ",
"4.N.rXMXmXvXpX( / { 5XK k _ %XK d W.*Xe q U.[ s $.I #.o.O.#.@.%.D H &.&.D Z.G.fXNXVXmX/.vXZXFXwXW.bXwXR.T./.|./.&X_.7.,.G H H H ",
"4.M.rXbXwXwXyX` _ / eXk ( [ '.K / Y._.^ 9 E. .J $.#.#.o.+.#.+.D D 1.,.,.,.D.,XkXhXNXwX).W.NXZXNX/.AX1X/.R.1X1XeXuX-X:X7.1.H G G ",
"6.s.NXMXwXI.pXK Q.h 1X^ _ _ '.K [ ..'./ h W...T $.+.+.+.+.S S S %.%.*.&.2.G.fXjXuXkX1XQ.W.6XZXAXhXgX7X].].2X3X1XhX*X Xd.*.D G G ",
"6.B.rXwX(.) ) 8 7Xd 0 d ].8 f ( '.9 a Q.P.w < c.$.+.+.+.+.S S S @.*.*.*.r.G.,XfX8XjX$XQ.Y.2XkXfXdX*X_._.=X*X].].[.[. Xd.+.V :.F ",
"z.} T.(.).I.. _ aX[   U.6X/ o {.=Xa o 2X].. s `.o.+.+.+.+.S S S D *.F ,.r.H.:X#X@X#XG.| s.@X:X#X#XN.s.d.`.`._.N.`.B.C.d.+.S :.u.",
"| X.T.lX^.vX1X5XgX6X{.6X6X].].aXaX].>X4X1XR.sX Xo.+.+.+.+.S S S @.D D H r.D.z.z.F.F.f.9.9.h.k.z.d.f.4.6.d.B.B.d.s.5.d.3.+.F :.F ",
"j.| XX^.oXOXiX5X0X9X0X4XgXgXgX7X4X8X0X6X2X|.aXB.I +.+.+.+.S S S Y D D D >.7.>.9.8.7.7.,.=.r.>.7.0.w.1.q.r.t.d.y.w.<.q.H 1.:.:.F ",
"| .XOXcXoXOXiXyX6X0X5X3X6X6X6X6X0X3X*X6X}.}.sX Xs +.o.o.+.+.+.+.%.&.,.>.,.>.<.q.0.3.q.<.<.q.,.0.<.*.G ,.<.0.<.6.0.q.>.A.1.<.:.1.",
"| Y.oXcX(./.yX4X5X5X-X9X0X;X9X9X9X3X6X0X1X1X7X Xm m m m S s m Y @.! ;.Q Q ,.,.=.-.3.3.3.=.-.-.-.-.;.=.-.>.,.-.6.3.4.Q Q =.-.3.6.",
"G.qXxXnXnXvXiXgXgX9XiXuX0XiXiX9XuXuXdXrX1X7XjX Xp.6.d.d.6.d.y.d.x.x.G.F.Z.Z.Z.Z.V.V.C.V.D.Z.D.D.l.H.F.F.Z.A.V.V.C.G.F.F.F.F.x.x."
};
