/* XPM */
static char *_8ea7c65a49c4387c65888bb1739a3ebK06tjvlSNyiExG4z[] = {
/* columns rows colors chars-per-pixel */
"64 64 233 2 ",
"   c #030104",
".  c #0B0203",
"X  c #0B060B",
"o  c #130301",
"O  c #190905",
"+  c #1B130E",
"@  c #030116",
"#  c #110B12",
"$  c #1B1819",
"%  c #230B09",
"&  c #241B17",
"*  c #2C150B",
"=  c #36231B",
"-  c #1D1527",
";  c #130924",
":  c #251B36",
">  c #221624",
",  c #282426",
"<  c #342A27",
"1  c #282436",
"2  c #37373A",
"3  c #342F35",
"4  c #422016",
"5  c #4F3833",
"6  c #63392C",
"7  c #6B463C",
"8  c #332945",
"9  c #393449",
"0  c #322649",
"q  c #463D4A",
"w  c #453A57",
"e  c #4C3F6B",
"r  c #4D435E",
"t  c #484756",
"y  c #504B4E",
"u  c #654C46",
"i  c #744F42",
"p  c #755A55",
"a  c #755649",
"s  c #79615B",
"d  c #4E4364",
"f  c #4E416D",
"g  c #50446E",
"h  c #554B67",
"j  c #5D596B",
"k  c #4F4172",
"l  c #524473",
"z  c #594D71",
"x  c #665D74",
"c  c #696777",
"v  c #78747A",
"b  c #726C74",
"n  c #895946",
"m  c #995B51",
"M  c #8C574E",
"N  c #88604D",
"B  c #896558",
"V  c #996A5A",
"C  c #A16C59",
"Z  c #A4745B",
"A  c #886963",
"S  c #986E63",
"D  c #8F756A",
"F  c #9B7363",
"G  c #977469",
"H  c #997D76",
"J  c #827576",
"K  c #AC6C63",
"L  c #A87767",
"P  c #B47867",
"I  c #A77B73",
"U  c #BA7B72",
"Y  c #B46F6A",
"T  c #C17D78",
"R  c #9F817A",
"E  c #A88379",
"W  c #B88777",
"Q  c #B98671",
"!  c #C48A78",
"~  c #C7927D",
"^  c #787788",
"/  c #746A84",
"(  c #867C8C",
")  c #7D8294",
"_  c #84838B",
"`  c #8B868D",
"'  c #988A8B",
"]  c #898895",
"[  c #938C98",
"{  c #95939C",
"}  c #9B9498",
"|  c #A98A85",
" . c #B68B83",
".. c #BC9283",
"X. c #B4938C",
"o. c #A69898",
"O. c #B69A96",
"+. c #AE958D",
"@. c #BEA29D",
"#. c #9497AA",
"$. c #9B9BAC",
"%. c #9897A7",
"&. c #9C9EB1",
"*. c #979EBA",
"=. c #9290A5",
"-. c #A19DA5",
";. c #A69EAA",
":. c #A49DB5",
">. c #9DA1B4",
",. c #9FA5BE",
"<. c #9DA1A9",
"1. c #A4A3AA",
"2. c #AAA5A9",
"3. c #B7AAAB",
"4. c #A3A3B5",
"5. c #AAA6B3",
"6. c #ACAAB5",
"7. c #A3A6BA",
"8. c #A6A9BB",
"9. c #ABACBC",
"0. c #ADA6B8",
"q. c #B1AEBD",
"w. c #B4AAB7",
"e. c #B5B4BB",
"r. c #AEB1BB",
"t. c #C68E83",
"y. c #C89687",
"u. c #D59888",
"i. c #D99E91",
"p. c #CB988E",
"a. c #E09F8D",
"s. c #D8A18C",
"d. c #CAA397",
"f. c #D9A494",
"g. c #E7AB9A",
"h. c #EDB09D",
"j. c #C5ACAA",
"k. c #D5ACA1",
"l. c #D9B4A6",
"z. c #C6B4B5",
"x. c #D3B9B8",
"c. c #E6B4A4",
"v. c #F3B5A9",
"b. c #D2C2BE",
"n. c #9DA4C1",
"m. c #A5AAC3",
"M. c #ABADC3",
"N. c #ACAEC9",
"B. c #A6AAC6",
"V. c #B3AEC5",
"C. c #AEB2C4",
"Z. c #ADB2CA",
"A. c #A7B0CF",
"S. c #B3B2C4",
"D. c #BBB6C5",
"F. c #BCBAC5",
"G. c #B4B5CB",
"H. c #B9B6CA",
"J. c #B5B9CD",
"K. c #BCBBCB",
"L. c #B6B9C4",
"P. c #AFB6D3",
"I. c #B4B7D2",
"U. c #B5BAD3",
"Y. c #BBBDD3",
"T. c #B5BDD9",
"R. c #BBBEDA",
"E. c #C1BDCC",
"W. c #C7BDC7",
"Q. c #C3BED2",
"!. c #C9BFD4",
"~. c #BEC2CB",
"^. c #BDC2D4",
"/. c #BDC2DB",
"(. c #BCC5D9",
"). c #BEC4E1",
"_. c #C4C2CD",
"`. c #C9C5CD",
"'. c #CAC9CD",
"]. c #C9C6C8",
"[. c #D3C5CD",
"{. c #DBCACC",
"}. c #D7C5C7",
"|. c #C5C3D2",
" X c #CAC6D3",
".X c #C6C9D5",
"XX c #CDCAD4",
"oX c #C2C4DB",
"OX c #CAC6DA",
"+X c #C4CADC",
"@X c #CDCBDA",
"#X c #D1CDD6",
"$X c #DACDD4",
"%X c #D2CEDA",
"&X c #D5C9D8",
"*X c #D4D0D7",
"=X c #D4D1DB",
"-X c #DAD3DD",
";X c #DDD9DC",
":X c #CDD1DB",
">X c #E3CDCB",
",X c #E6D7D7",
"<X c #E6D1CE",
"1X c #C3C6E1",
"2X c #C5CAE3",
"3X c #CDCDE1",
"4X c #C7CCE8",
"5X c #D4CDE2",
"6X c #D9CFE5",
"7X c #CCD2E5",
"8X c #CED2E9",
"9X c #D4D3E2",
"0X c #DBD4E3",
"qX c #DCDCEB",
"wX c #DAD5E8",
"eX c #E3DAE5",
"rX c #E1DBF1",
"tX c #E5E2EC",
"yX c #ECE4EA",
"uX c #EBE6E8",
"iX c #F4EBEB",
"pX c #F8E8E9",
"aX c #EAE6F2",
"sX c #EDECF9",
"dX c #E7E7F4",
"fX c #F3ECF4",
"gX c #F4EEFA",
"hX c #F4F3FD",
"jX c #FBF5FC",
"kX c #FDFAFF",
"lX c #FEF4F5",
"zX c #EEF1F8",
"xX c #DEE0ED",
/* pixels */
"#X#X#X%X*X#X*X=X#X#X=X#X=X=X=X*X=X=X=X=X#X*X*X#X=X*X%XeXeX6X!.eX$XeX*X;X=XE. X%X&XXXOXXXXX X'.'..X`.|.|.OX X@X#XXX-Xe.q w d l l ",
"XX#XXX*X*X@X#X#X#X#X#X*X#X#X#X=X=X=X%X=X=X=X*X#X'.*X#XW.&X&X&X} 2.W.#X=X*X XeX#XOX@X#X XXX XXX'..X`.|.|. X.X&X@XXX-XW.t w g l l ",
"XX*X#XXX*X*X@X*X:X#X#X*X=X#X#X=X*X-X=X%X#X*X#X#X=XF.%X-X;.q >   . t v '. X*X XrX&XXX@XXXXXXX'.'. X|.|._. X X@X%X'.-XW.h 9 h g k ",
"#XXXXX*XXX#X*X*X#X#X#X:X#X#X=X#X%X%X#X*X*X#X#X#XF.yX&X`   #   y , X     6.=X0X@XOXXXOX.X X X.X.X'.`.|.|. X.X@X#XXX-X`.x 8 g g k ",
"XX#X#X#X#XXX*XXXXX*X@X*X#X:X*X*X#X%X%X%X:X*X:X:X;X*X{ # $ $ ,   $ $ 2   y K.=XK.@X X@XOX X X X X|.`.|.|..X X%X#XXX-X X/ : z f k ",
"XXXXXXXXXX*XXX*XXXXX#XXX#X#X@X*X#X&X&X#X'.:X'.'.~.2.  $ # # $ & $ , $ 2   1.#XwXOXOXOX XOX.XOX X X|.|.`..X X@X#XXX%X&X( - l e k ",
"XXXXXX#XXX#X#XXX*XXX#X*XXX*X*X%X#X#X#XXX*X.X'.:X:X)   , $ $ & + &   $ , $ 3 _.9XOX.XOX.X XOX X X.X`.|.|.|.OX@X%XXX&X&X] ; z e k ",
"XX#X#XXX*XXXXX*XXX#XXXXX*XXX#X%X#X#X*X*X:X'.:X.Xe.2   & $ & + < + & + # 2   e.9X.XOXOXOXOX|. X X X`.|.|.OX X&XXXXX&X&X=.# z e k ",
"'.XXXXXXXX*X#X*X*XXXXX*X@X#XXX*X&X*X`.W. X@X:X:X<.  , , & + * = = O O + , X v *X.X.X:X+X@X@X.X|. X_.K.|.OX%X%X%X$X'.6X0.- e g l ",
"XXXXXX#X#XXX#X#XXX*X*XXX#X#X#X#X&X$X`. X.XXX9X_.v   < < * = 7 D R 5 = O &   y ]._..X.X:X@X.X.X|.|._.E._.OX@X%X%X&XXX-X0.: d f l ",
"#X#XXXXXXXXX#XXX*X#XXX*X%XXX#X#X&X#X@X#XXXXX:X~.2 X < & + 7 E b.k.d.E R s O O 2.'.'.XX@X:X.X.X.X X_.K._..X%X%X%X$X`.-XV.0 w l l ",
"=X=X*X*X#XXX'.XX@X#X*XXX#X#X#X#X%X#X*X0X.X.X:Xr.$ X & O * R l.l.d.c.b.j.+.5   o.'..X.X.X.X.X.X.X`._.Q.|.@X%X%X#X#XXX-XD.w w k l ",
"=X*X%X#XXXXXXXXX*X@X*XXXXX%X#X#X$XXX#X0XXX.X#X6.$ X + O 7 | c.f.s.g.k.k.d.A . v ].'..X.X.X.X'.~._._._.|.@X%X%XXX&XXX%X!.h 9 l l ",
"#X*X*X#X*X@X#XXXXX*XXX*X*XXXXX#X#X$X#X=X@X.X+Xr.3   + 5 H W f.s.h.h.c.l.d.R O y ].'.'..X:X.X'.(._.F._.|.3X=X@XXX$X X-X!.x 0 l l ",
"XX#XXX#X@X*X*X*X#X#X#XXX*XXX*XXX#X#XXX@XXX+X.Xe.3 . * B y.y.s.c.g.a.h.s...E 5 b b.].'.'.'.'.~.~.E.~._. X3X=X&X X#X`.&X5X/ 0 l l ",
"XXXXXX#X*X*X=X=X*XXX#X#X@X*XXX*XXX-XXX.X@XXX XF.< o % G d.f.f.v.h.s.h.g.d.d.a s ].].'..X'.(.'.~.~.E._.OX%X=X@X`.&XXX&X5X^ 0 l l ",
"'.`.XX'.XX#X#X#X=X=X=X=X*X*X#X*XOX@X@X9X3X@X&Xz.5 o 4 I d.p.W W i.u.g.s.t.U M M W.'.XX.X.X.X_.~.E._..XOX@X=X@XXX%XXX%X6X=.; l d ",
" X X'.XX#XXX#XXX*X*X=X=X*X=X=X=X@X5X@X5X@XOXXXz.u % n t...G D N I ! ! K M M A ( }.'.@X+X.X~.~.~._.|. XXX@X@XXX%X&X#X%X5X%.- h r ",
"XXXXXX'.XXXX'.XX#X#X#X*X*X*X=X=X=X9X3X7XOX&X[.j.i o S y.W W d.W m ~ Y C t.X.B ( }.&X.X+X(.~.~.L.E.Q..XOX@X*X%X#X@X&X@X5X:.: r r ",
"*XXX#XXX'.XX`.XXXXXXXX#X*X=X=X9X=X9X9X9X&XXXXX3.B * E p.y.F N 6 K Q K M i S G ' W.&X@X+X.X.X~.~._.|. X@X@X=XXX@X X&X%X5X0.q w r ",
"#X#X#X'.#XXX'.XXXXXX#XXX*X*X=X=X;X9X:X9X@XXX[.j.| 6 F ~ ~ ~ P C K g.u.K C S A O.{.&XOXOX.X~.K.L.E.|. X@X@X*X%X@X&X&X&X5XE.e q w ",
"XXXX#X#XXXXXXXXXXXXXXX#XXX#X*X*X:X=X:X9X@X#XXXj.H i S f.g.g.! ! f.f.i.t.I  .p.O.$X&X@X+XoX|.K.F.Q. XOX%X@X=X*X@XOX&XOX5X!.z q e ",
"XX'.XXXX#X#X&X#XXXXX#XXXXX#XXX#X*X*X#X9X*X#X$Xj.d.V Z a.s.h.h.a.i.v.c.i.g.k.| x.$X%X@X+XoX~.D.D.|.|.OX@X=X%X%X*X X6X&X5X5Xx 1 d ",
"'.XXXXXX#X#X=X#X*XXX*X#XXXXXXX'.XX*X#X7X#X#X$Xz.j.I Z ~ ~ g.v.~ i.v.i.t.c.k.| z.$X%X7X+XOXE.D.D._.|. X@X7X%X*X@X X-X!.&X6X/ 3 e ",
"#XXXXX#XXX'.#X'.XX[.XXXX#X*XXXXX*X*X*X'.@XXX$X}.x.X.L ~ ~ ~ ~ ! u.h.u.Y t.i.p.W.$X%X@X+X+X~.E.D.@X@X@X9X9X=X&X#X&X X XOX6X=.: d ",
"#XXXXXXXXX#XXXXXXXXX#XXXXX#X%X*X*X'.*X:X@X@X#X{.x.W V ~ ! ! ! P m M M m ( u.t.W.&X@X+X+XoXK.D.E.OXOX@X=X@X@XXXXX%X&X!.&X6X%.1 d ",
"#XXX#XXXXX'.XXXX'.XXXX#XXX#X#X#X*X{.*X:X@X=X#X{.x.X.F t.! P Q ~ u.T T t.u.( O.$X#X XOX(.^.K.E.D. XOX@X%X%X@XXXXX@X%X XOX6X:.q w ",
"#X#XXX#XXX#XXXXX#XXX#XXX#X#X*X*X{.*X#X:X@X@XXX$X>XO.F W ! Q ! ~ u.u.T T T I X.{.XX.X^.^.Y.K.K.E. X.XXX@X@X@XXX.X X0X X!.rXV.w w ",
"#XXXXX#XXX#X#XXXXXXX#X#X#X#X*X#X*X*X%X%X3X:X%X&X}.j.S I ~ ~ Q m K Y m m U  .O.$XXX|.^.U.Y.H.E.W. XOX@X%X@X@XXXXX!.6X&X!.6X!.z w ",
"#X#X#X#X#XXXXXXXXX#XXX#XXX*X%X*X$X*X%X%X5X3X%X#X}.l.G G Q W W Q T T K Y t. .@.$XXXOX^.^.Y.Q.!.!.OX@X%X%X=X*X@XXX&X6XOX!.6X6Xx 0 ",
"#X#X#XXXXX#XXX#X#X#X#X#X*X*X*X%X*X$X%X5X7X3X3X%X[.x.D V F Q y.s.T T T t.U U j.>XXXOX^.Y.Y.Q. XOX@X@X9X9X9X9X=X%X6X&X5X5X6XrX( 0 ",
"#X#X%X#X#X#X#XXX#XXXXX#X%X*X*X=X$X$X-X%X5X7X3X%X,Xz.p B F Z Q ~ ! Y U  .V ( >X&X@X@XoXY.Q.!. X&X5X%X9XwX0X9X=X*X5X&X&X6X6XrX( - ",
"6XeXwXeXeX-X*X#X*X*X*X*X;X9X0X0X0XeX0XwXwX9X9X%X*XO.+.s V Z Q ~ u.u.~ d.D b.b.:X3XoXQ.Y.E.W.&X-X-X-X=X=X=X=X9X9X.X@X9X%X5XwXF.9 ",
"6X6X0X0X0X-X*X$XXX*X*X*X=X=X;X-X$X,X0XwX3X3X5X9Xr.3.3.s N C Z Q ~ s.~ R R 3.#X.X5X1XQ.H.D.W.[.$X#X%X=X=X=X%X=X@X.XXX9X%X@XwXL.t ",
"&X%X%X%X*X%X$XXX'.'.XX#X:X#X%X%X6X&X&X@X3X7X3X.X2.'.b.R V N n Z Q Q R a O.3. XQ.3XQ.J.S.w.W.W.[.#X#X@XXX@XXX@X&X X X%XXXOX=X|.j ",
"!. X&X&X#X&XXX'.'.'.'.XX X.X.X X6X&X XOX3X3X^.S.F.;X,XE R R n n n a 7 E {.w.e.H.Y.I.M.M.V.E.W.W. XXX.XXX X.X X X XXXOX|..XXX%X^ ",
"!.!.!. XXX[.`.`.'.'.'.'.`.|.|.|.@X3X5XoXJ.Z.J.^.F.`.eX>XX.G V N N a N }.pXw.w.V.N.B.B.M.H.E._._. X X X.X|. X|.|. X X X|. X.X9X{ ",
"E.!.W.[.XXXX`.`.'.'.'.|.|._.|.oX%XOXY.M.m.m.I.^.~._.eXpXj.R G F N B O.,XeX5.Q.J.B.n.n.m.J.oX|._..X X|. X X|.|.|..X X.X X|._.=X4.",
"E.E.!. XXXXX'.'.XX'.|..X|.|.E.oXoXG.m.m.B.P.T.Y.Y.0XpXpX<X@.E H D +.<X,X,X0.oXY.T.A.n.,.C.Y.^._. X X X|.|. X|.|.|. XXX@X XE.0X9.",
"E.Q.W.XXXXXX'.'.XX X.X|.|.oX|.Q.7.m.M.N.U.T.T.Y.J.dXeXyXlX>XO.X.O.b.pXfXeXK.G.I.4XP.n.*.m.J.^.^.OXoXOX XOX|.OX|.|. X@X@X XE.9Xe.",
"E.E.E._.`. X`.XX#X.X X@X|.C.8.9.N.N.Z.P.P.P.T.T.(.5XhXgXpXpX<Xx.,XpXpXiXtXoXG.N.).A.n.B.m.,.m.(.OX3XOXQ.Q.Q.E.Y.|.|. X X X X.X.X",
"D.E.E.E.`.`.'. X X.XXX.XY.M.m.Z.I.P.P.T.T./.(.(.J.qXsXfXkX<Xo.+.| {.lXkXeXQ.U.I.P.A.A.P.U.A.m.J.Q.!.oXOXQ.Q.|.!.|.|.|. X X XXX X",
"E.E.E.`._.`.'. X X X.X^.J.M.G.Y.U.T.T.T.).)././.Y.3XhXgX[.} | } v 3.;XlXsX^.G.T.A.A.T.)./.U.Z.m.N.H.!.1XOXQ.OXOX|.|. X|.|. X XXX",
"E.E.W.|._.`.]..X.X|.^.K.G.G.Y./.R.).).).).).(./.Y..XhXaXw.J o.2.o.3.].uXdXoXG.I.P.T.T.T.T.^.U.Z.B.V.Q.2XOXQ.Q.OX|.|.|.|.'. X X X",
"_._._._._._..X_..X|.J.S.G.R.oXR./.R.R./.(././.^.K.9XqXeXeX2.' } 3.;XuX0X0X@XoXZ.T./.R.I.I./.(.I.N.V.Q.1X1XQ.Y.Q.|.|.`.|.`.'. X X",
"|.`._._.]._._._..X_.L.S.J.oX1XR.R.T./.T.(.T.U.Y.|.OXeXgXjX[.` H ].iXzXuXqX:XOXY.T.T.).U.T./.(.J.H.V.V.oX!.H.H.E.Q.|.|.|.|.|..X`.",
"_.|.]._._._._.~.|.|.Y.G.Y.1X1XT.)./././.R.Y.Y.^.@XE.tXkXiX$X' } ,XiXaXjXhXOXK./.U.R.R.U.U.^.^.U.Q.B.N.Q.oXQ.H.K.|.|.|._.`.|.`.'.",
"|.`._._.].~._._.^.|.|.J.U.Q.oXU.).)./././.^.|.Y..X.X0XfXgX$Xv z.,XkXkXhXdXOXY.G.R.Y.U.I.P.J.T.^.R.B.:.V.oXQ.Y.Q.|.Q.|.`.|.|.`.|.",
"`._. XXXXX X|._.+X.XL.M.Y.Y.K.^.).).1X).R.Y./.(.+XY.dXhXaX5.v v x.iXfXjXrXOXI.Q.(.^.~.(.(.(.(.^.B.N.#.B.Y.J.|.Y.|.|.|.|.|.|. X X",
"`.'.'.XX.X|.`._..XoXJ.M.Y.Y.Y.Y.Q.1X1X!.R.R././.oX^.qXhXdX6.[ } e.iXgXjXrX1XT.).(.~.(.(.(.(.A.~.0.V.#.V.|.H.oXK.|.|.Q.|.|. X.X X",
"'.'..X'. X'._._.|.^.J.S.J.Y.K.Y.Y.Q.1X1XR.R.R.oX^.U.3XhXzX<.} } 3.iXkXgXrX1XU.).^.^.(.:X(.(.~.A.M.M.#.B.Y.J.|.^.Q.|.|.|.|.|.|. X",
".X'.XXXX X|.E.~.~.K.L.L.J.J.Y.Y.R.Q.1X!./.R.R./.J.^.+XkXtX_ [ [ 3.iXjXsX6X!.T./.^.(.(.(.(.(.(.m.0.M.$.M.Y.J.K.Y.|.K.|.Q.|. X|.|.",
"'.XXXXXX.X_.E.F.J.J.J.G.J.J.Y.Y.I.Q.1X1X1X/./.(.T.+X7XhXOXb [ } 2.uXiXzXwXR.U./.(.(.(.(.(.~.~.~.M.8.&.8.Y.K.K._.E.|.Q.|.|.|.|. X",
"XXXXXX X|._.E.J.S.S.K.K.S.J.Y.Y.G.R.1X1X1X/./.+X+X^.+XzX:X_ -.} 2.uXzXzX9X/.I./.A.(.(.^.>.=.*.A.M.8.&.8.K.Y.J.Y.|.Q._.Q._.|.|.|.",
" XXXXXXX|._.J.H.q.C.J.Y.C.G.Y.Y.G.U.1X2X1X).oX/./.J.^.dX=X} 1.[ } uXzXaX3X/.P.P.^.^.(.L.) c ^ >.M.7.&.7.K.Y.J.|.K.|.Q.|._.|._. X",
"XXXXXX.X|._.F.F.M.9.K.Y.C.C.Y.Y.V.U.oX2X2XoX/.(.^.J.@XqXF.) } -.} uXkXdX).T.T.(.(.^.~.<.) t j ) M.4.>.7.G.Y.H.^._.Y.E.Q.|.|._.|.",
"%X%X.X X_.E.K.K.9.M.Y.K.J.U.G.I.R.V.R.8X1X1X4XoX8X8.OXxX6.{ 2.` -.;XkXxX^.T.R.1XJ.(.7X~.v 1 9 ) >.>.#.#.9.Y.Y.K.H.F.H.D.F.F.K.K.",
"@X@X@X XE.E.K.K.9.C.Y.Y.J.J.N.G.N.V.Q.4XR.).4X2XG.7XJ.|.5.v } e.1.;XkXqX/.(.).).(.7Xr.(.<.1 ^ <.m.M.&.$.9.J.C.9.S.S.D.V.H.D.D.F.",
"%X@X.X XQ.E.J.H.M.M.Y.Y.I.I.N.G.N.I.R.).R.).1X2X^.(.K.^._ _ 6.` 2.;XzX7XR.R.).).(.8X8.+X~.t <.7.J.L.8.>.M.G.L.S.L.L.H.K.K.E.E._.",
"%X.X X|.E.K.H.H.C.S.Y.Y.I.I.N.G.Q.I.Y.Q.).Q.R.1X+XJ.|..X9.e.` %.1.uXzX2XR.R.)./.(.(.~.:X>.) { >.&.4.#.#.7.S.9.V.S.S.S.D.F.F.F.K.",
"XX.X X|.Q.K.H.H.G.N.Q.I.H.I.B.V.I.H.U.1X2X).(.7X8X^.J.^.$.1.` ` <.tXdXoXI.I.).).Z.8.~.~.=.] %.q.#.&.#.=.4.V.S.J.q.V.V.S.L.K.K.E.",
"OX X|._.E.H.G.S.N.G.Q.Q.J.I.N.N.B.V.R.3X)./.2X4X8XC.c 1.e.<.-.[ -.zXtXY.G.P.1X).^.Z.^.~.r.v 5.M.:.8.7.&.8.G.J.K.S.e.D.K.K.E._._.",
" X.X|.E.K.H.V.G.V.H.).R.G.G.B.N.m.B.Y.oX/.1X).m.) @ @ r.r.v 3._ <.zXqXG.A.P.1XR.(.^.~.~.6.v 9.;.$.7.>.#.&.m.9.C.5.9.9.q.L.F.K.E.",
" X X|.Q.H.H.H.V.G.G.!.U.I.G.B.N.I.G.U.U.U.4X(.) @ @ 9 r.L.{ 2._ 1.zXwXV.P.T.4XR.>.{ ) ^ j c ] ] $.>.>.#.&.8.9.S.q.9.V.D.K.E._._."
};
