/* XPM */
static char *b098fbf5989a4563a69f3448300d969caWlIWmjwMZAwFPtG[] = {
/* columns rows colors chars-per-pixel */
"32 32 2 1 ",
"  c red",
". c white",
/* pixels */
"................................",
".                              .",
". ............................ .",
". ............................ .",
". .....   ............   ..... .",
". .....    ...........   ..... .",
". .....    ...........   ..... .",
". .....     ..........   ..... .",
". .....      .........   ..... .",
". .....   .  .........   ..... .",
". .....   .   ........   ..... .",
". .....   ..   .......   ..... .",
". .....   ..   .......   ..... .",
". .....   ...   ......   ..... .",
". .....   ....   .....   ..... .",
". .....   ....   .....   ..... .",
". .....   .....   ....   ..... .",
". .....   .....   ....   ..... .",
". .....   ......   ...   ..... .",
". .....   .......   ..   ..... .",
". .....   .......   ..   ..... .",
". .....   ........   .   ..... .",
". .....   .........  .   ..... .",
". .....   .........      ..... .",
". .....   ..........     ..... .",
". .....   ...........    ..... .",
". .....   ...........    ..... .",
". .....   ............   ..... .",
". ............................ .",
". ............................ .",
".                              .",
"................................"
};
