/* XPM */
static char *_69e3b5d2cad475a93f9b83402be45eagV0k1KAy1oalZ3fv[] = {
/* columns rows colors chars-per-pixel */
"32 32 2 1 ",
"  c #FFCC00",
". c white",
/* pixels */
"................................",
".                              .",
". ............................ .",
". ............................ .",
". ............................ .",
". ............................ .",
". ....    ............    .... .",
". ....    ............    .... .",
". ....    ............    .... .",
". ....    ............    .... .",
". ....    ............    .... .",
". ....    ............    .... .",
". ....    ............    .... .",
". ....    ....    ....    .... .",
". ....    ....    ....    .... .",
". ....    ....    ....    .... .",
". ....    ....    ....    .... .",
". ....    ....    ....    .... .",
". ....    ....    ....    .... .",
". ....    ....    ....    .... .",
". ....    ....    ....    .... .",
". ....     ..      ..     .... .",
". ......       ..       ...... .",
". ......      ....      ...... .",
". ........    ....    ........ .",
". ........    ....    ........ .",
". ............................ .",
". ............................ .",
". ............................ .",
". ............................ .",
".                              .",
"................................"
};
