/* XPM */
static char *_f4d992f2ec345e2a7f1da66ed6331e258hncnNXBYUfW4jW[] = {
/* columns rows colors chars-per-pixel */
"64 64 253 2 ",
"   c black",
".  c #010101",
"X  c #020202",
"o  c gray1",
"O  c #040404",
"+  c gray2",
"@  c #060606",
"#  c #070707",
"$  c gray3",
"%  c #090909",
"&  c gray4",
"*  c #0B0B0B",
"=  c #0C0C0C",
"-  c gray5",
";  c #0E0E0E",
":  c gray6",
">  c #101010",
",  c #111111",
"<  c gray7",
"1  c #131313",
"2  c gray8",
"3  c #151515",
"4  c #161616",
"5  c gray9",
"6  c #181818",
"7  c #191919",
"8  c gray10",
"9  c #1B1B1B",
"0  c gray11",
"q  c #1D1D1D",
"w  c #1E1E1E",
"e  c gray12",
"r  c #202020",
"t  c gray13",
"y  c #222222",
"u  c #232323",
"i  c gray14",
"p  c #252525",
"a  c gray15",
"s  c #272727",
"d  c #282828",
"f  c #2A2A2A",
"g  c gray17",
"h  c #2C2C2C",
"j  c #2D2D2D",
"k  c gray18",
"l  c #2F2F2F",
"z  c gray19",
"x  c #313131",
"c  c #323232",
"v  c gray20",
"b  c #343434",
"n  c #353535",
"m  c gray21",
"M  c #373737",
"N  c gray22",
"B  c #393939",
"V  c #3A3A3A",
"C  c gray23",
"Z  c #3C3C3C",
"A  c gray24",
"S  c #3E3E3E",
"D  c #3F3F3F",
"F  c gray25",
"G  c #414141",
"H  c gray26",
"J  c #434343",
"K  c #444444",
"L  c gray27",
"P  c #464646",
"I  c gray28",
"U  c #494949",
"Y  c gray29",
"T  c #4B4B4B",
"R  c #4C4C4C",
"E  c gray30",
"W  c #4E4E4E",
"Q  c gray31",
"!  c #505050",
"~  c #515151",
"^  c gray32",
"/  c #535353",
"(  c gray33",
")  c #555555",
"_  c #565656",
"`  c gray34",
"'  c #585858",
"]  c gray35",
"[  c #5A5A5A",
"{  c #5B5B5B",
"}  c gray36",
"|  c #5D5D5D",
" . c gray37",
".. c #5F5F5F",
"X. c #606060",
"o. c gray38",
"O. c #626262",
"+. c gray39",
"@. c #646464",
"#. c #656565",
"$. c gray40",
"%. c #676767",
"&. c #686868",
"*. c DimGray",
"=. c #6A6A6A",
"-. c gray42",
";. c #6C6C6C",
":. c gray43",
">. c #6F6F6F",
",. c gray44",
"<. c #717171",
"1. c #727272",
"2. c gray45",
"3. c #747474",
"4. c gray46",
"5. c #767676",
"6. c #777777",
"7. c gray47",
"8. c #797979",
"9. c gray48",
"0. c #7B7B7B",
"q. c #7C7C7C",
"w. c gray49",
"e. c #7E7E7E",
"r. c gray50",
"t. c #808080",
"y. c #818181",
"u. c gray51",
"i. c #838383",
"p. c #848484",
"a. c gray52",
"s. c #868686",
"d. c gray53",
"f. c #888888",
"g. c #898989",
"h. c gray54",
"j. c #8B8B8B",
"k. c gray55",
"l. c #8D8D8D",
"z. c #8E8E8E",
"x. c gray56",
"c. c #909090",
"v. c gray57",
"b. c #929292",
"n. c #939393",
"m. c gray58",
"M. c #959595",
"N. c gray59",
"B. c #979797",
"V. c #989898",
"C. c gray60",
"Z. c #9A9A9A",
"A. c #9B9B9B",
"S. c gray61",
"D. c #9D9D9D",
"F. c gray62",
"G. c #9F9F9F",
"H. c #A0A0A0",
"J. c gray63",
"K. c #A2A2A2",
"L. c gray64",
"P. c #A4A4A4",
"I. c #A5A5A5",
"U. c gray65",
"Y. c #A7A7A7",
"T. c gray66",
"R. c #A9A9A9",
"E. c #AAAAAA",
"W. c gray67",
"Q. c #ACACAC",
"!. c gray68",
"~. c #AEAEAE",
"^. c #AFAFAF",
"/. c gray69",
"(. c #B1B1B1",
"). c #B2B2B2",
"_. c gray70",
"`. c #B4B4B4",
"'. c gray71",
"]. c #B6B6B6",
"[. c #B7B7B7",
"{. c gray72",
"}. c #B9B9B9",
"|. c gray73",
" X c #BBBBBB",
".X c #BCBCBC",
"XX c gray74",
"oX c gray",
"OX c gray75",
"+X c #C0C0C0",
"@X c #C1C1C1",
"#X c gray76",
"$X c #C3C3C3",
"%X c gray77",
"&X c #C5C5C5",
"*X c #C6C6C6",
"=X c gray78",
"-X c #C8C8C8",
";X c gray79",
":X c #CACACA",
">X c #CBCBCB",
",X c gray80",
"<X c #CDCDCD",
"1X c #CECECE",
"2X c gray81",
"3X c #D0D0D0",
"4X c gray82",
"5X c #D2D2D2",
"6X c LightGray",
"7X c gray83",
"8X c #D5D5D5",
"9X c gray84",
"0X c #D7D7D7",
"qX c #D8D8D8",
"wX c gray85",
"eX c #DADADA",
"rX c gray86",
"tX c gainsboro",
"yX c #DDDDDD",
"uX c gray87",
"iX c #DFDFDF",
"pX c gray88",
"aX c #E1E1E1",
"sX c #E2E2E2",
"dX c gray89",
"fX c #E4E4E4",
"gX c gray90",
"hX c #E6E6E6",
"jX c #E7E7E7",
"kX c gray91",
"lX c #E9E9E9",
"zX c #EAEAEA",
"xX c gray92",
"cX c #ECECEC",
"vX c gray93",
"bX c #EEEEEE",
"nX c #EFEFEF",
"mX c gray94",
"MX c #F1F1F1",
"NX c gray95",
"BX c #F3F3F3",
"VX c #F4F4F4",
"CX c gray96",
"ZX c #F6F6F6",
"AX c gray97",
"SX c #F8F8F8",
"DX c #F9F9F9",
"FX c gray98",
"GX c #FBFBFB",
"HX c gray99",
"JX c #FDFDFD",
"KX c #FEFEFE",
"LX c white",
/* pixels */
"LXLXLXLXLXLXLXLXLXLXLXLXLXLXLXLXLXLXLXLXDXLXLXLXLXDXDXLXDXLXLXDXLXLXLXLXDXLXLXLXLXLXLXLXLXLXLXLXLXLXLXLXLXLXLXLXLXLXLXLXLXLXLXLX",
"LXLXLXLXLXLXLXLXLXLXLXLXLXLXDXLXLXLXLXLXDXLXDXLXLXLXLXLXLXLXLXLXDXLXLXLXLXLXLXLXLXDXLXLXLXLXLXDXLXLXLXLXLXLXDXLXLXLXLXLXLXDXLXDX",
"LXLXLXLXLXLXLXLXLXLXLXLXLXLXLXLXLXLXLXDXLXDXLXLXkX-X!.A.g.p.v.E.*XkXDXLXDXLXLXVXLXLXLXLXDXLXDXLXDXLXDXLXLXLXLXLXDXLXLXDXLXLXDXDX",
"LXLXLXLXDXLXLXLXLXLXLXLXLXLXLXLXDXLXLXLXLXDX-X5.X X X X X X X X X % u.}.yXDXLXLXDXDXLXDXVXLXDXLXDXDXDXDXDXDXDXVXDXDXDXDXVXDXVXVX",
"DXLXLXDXLXLXLXLXLXLXLXLXLXLXDXLXLXDXVXLXyX5.X X X X X X X w b b w X X X ^ r.8XDXBXBXVXVXDXVXVXBXBXBXBXVXVXVXBXBXVXVXVXVXVXBXBXBX",
"DXDXLXDXDXLXLXLXLXDXLXLXLXDXLXDXDXVXLX-XX X X g _ +.g._.oX-X2X-XE.r.7._ 8 X R pXLXVXBXcXVXcXcXBXBXcXcXBXcXBXBXcXBXBXBXVXVXBXcXcX",
"DXDXVXVXDXLXLXLXDXLXLXLXLXLXDXDXLXDXK.X X ^ K.*XrXrXgXcXkXkXkXkXgXyXrXrX_.1.8 x.*X-XcXcXcXcXkXcXkXkXkXkXkXkXkXkXkXcXcXcXcXcXkXcX",
"VXBXBXBXVXDXVXDXDXVXDXDXDXDXDXDXkX5.X j 1.-XyXrXrXrXyXpXpXgXpXgXgXkXpXyXpXrX$XA.X X v.gXkXkXcXgXgXpXgXgXgXgXgXgXgXkXkXkXkXkXgXcX",
"cXBXcXcXcXVXVXBXVXVXBXBXVXBXBXBX1.X B B G.-X5X2X5XrXrXyXyXyXgXpXyXkXpXyX8XyXrXrX}.Y X g.gXgXpXgXpXpXyXyXyXyXyXrXpXpXpXgXgXgXpXgX",
"cXcXkXgXcXBXBXBXcXcXcXkXgXkXcXK.# z H 7.Y.}.*X-X-X2X5X8X8XyXyXpXpXyX8XrX8X2X8X2X2X$X_ X }.pXpXpXyXyXyXrXrXrXrXrXrXrXyXyXyXpXyXyX",
"gXgXgXgXgXkXkXkXkXkXkXgXgXgXgX#.X j [ *.m._._.'.oX*X*X-X2X8X5X5X8X8X8X5X8X2X-X2X-X5X_.X x.yX8XrXrX8X8X8X8X8X8X5X8X5X8XrX8XrXrXrX",
"pXyXyXpXpXpXpXpXpXpXpXyXyXpX2Xz X u # b x.!.E.'.$X*X-X5XrX8X5X5X8X-X8X2X-X2X2X-X$X-X2X[ #.8X8X5X8X5X5X5X5X5X2X5X5X5X8X5X5X8X5X5X",
"yXrX8XrXyXrXyXyXyXrXrXrX8XpXE.X u % B m.Y.K.!.Y.5.p.m.G.'.*X-X2X2X-X-X5X2X2X2X-X-X}.$XA._ *X5X5X2X5X2X5X5X2X2X2X5X2X2X5X2X2X2X2X",
"rX5X8X8X8XrXrX8X8X8X8X8X8X8X5.X u B u.K.m.x.#.L j | | _ A A v.!.}.$X}.$X!.Y.}.}._.oX}.E.[ _.2X-X-X-X2X-X-X2X-X-X-X-X-X-X-X2X-X-X",
"5X5X5X5X5X5X5X5X5X5X2X-X5X-XR # ; +.v.r.5.b X X ^ ^ A j u X # v.oX$XE.| X # Y #.[ 1._._.R m.5X*X*X*X*X-X*X-X-X*X-X*X*X-X-X*X*X*X",
"-X-X2X2X2X5X2X2X2X2X5X-X-X$XA X > z 5.g X X H R #.7.#.b j b X w | 7.[ X X z [ 7.x.Y [ E.g.7.2X$X$X$X*X*X*X*X*X*X*X*X*X*X*X$X$X*X",
"-X-X2X-X-X2X2X-X-X-X*X-X*X$XH X w X X R H 5 A % j _ ^ ; X j R X X X X j j X R +.p.!.[ +.!.g.*X$X$X$XoX$X$X$X$X$X$X$X$X$X$X$XoXoX",
"-X-X-X*X-X2X2X-X*X*X$XoXG.g.z X 8 X A r.u.^ u [ u 8 L _ Y [ X R g.[ # L j j L [ j u.G._ 7.v.*X$X$XoXoX}.oX$XoXoXoXoX$X$XoXoXoXoX",
"*X*X*X*X*X-X*X*X*X}.$X7.X X X # X X w ; X ;.*.K._.Y.E.'.'.u.L !.*X}.L v.v.;.| ^ 5 X ;.H # +.}.$XoXoXoX}.oX}.}.oXoXoX}.oXoX}.}.}.",
"$XoXoXoX$X$X$XoX}.oX$Xu.X u X X X % X j ^ [ | B v.!.G.p.| ;._._.}.oXx.| '.}.E.Y.K.v._ | [ 1.*X}.}.oX}.}.oX}.}.}.}.}.oX}.}.'.'.}.",
"oXoXoXoXoX$X}.}.}.'.'.'.a X % X % % ^ g.G.Y.Y.g.7.| X X 5.Y.v.E.'.}.}.5.b x.Y.E.A.1.% 8 z 5.G.oXoX}.}.}.'.}.'.}.}.}.'.}.}.'.'.'.",
"oX}.}.}.}.oX}.}._.oX'.}.[ X 8 X > g R *.r.x.u.p.1.> X H m.E.g.m.!.E.!.}.| X g | [ r.Y.g.m.#.j _.'.}.}.}.}.'.'._.'.'.'.'.'.'.'.'.",
"}.}.}.}.'.oX}.}.'._.'.}.#.X u X > > X ; g A z X X p.r.X A [ R L [ 5.v.G.G.H b x._.!._.E.Y.r.7.$X'.}.'.'.'.'._._._._._._.'._._._.",
"}.'.}.'.'.}.'.'.'._._.oX#.X w X > 8 w w 5 5 X _ A.K.A.g X X X 5 8 X X X 1.K.^ X r.A.A.G.G.A.}.'.'.'.'.}.'._._._._.!._._._.!._._.",
"'._.'._._.'.'.'.'.!.'.}.A.X 5 8 ; > 5 > 5 X ^ m.x.u.A.m.7.^ % X X g +.1.A.E.u.X ; ^ 5.g.x.G.}.'._._.'.'._._._._.!._.!.'.'._._._.",
"'.'.'._._.'._._.!.}.!.}.oXE.E.Y X 5 ; ; % 8 Y ^ Y #.g.m.K.A.x.g.g.Y._._.E.A.v.#.X 8 z [ 1.A.}.!._._._._._._.!.!._.!.!._._._.!._.",
"_._._._.!._._._._.'.'._.!.}.oX| X a X a L # X X X j z w X X % R *.[ _ | r.A.K.v.^ ; ^ R | Y.}._.!._.!.!.!.!.!._._.!._._.!._._._.",
"!.!._.!.!._.!._._.E.!._._._.oXg.X b % w R b a X % X X X *.#.5.R [ j A # X z ;.7.;.7.7.*.;.'._.!.!.!.!.!.!.!.E.!.!.!.!.!._._.!.!.",
"!._._.!.!.!.!.!.E._.!._.!._.'.!.B H j ; j Y +.u X > # j #.7.x.m.E.p._ X % L > Y 5.r.#.H m._._._.!.!.!.!.E.E.E.E.E.E.!.!.!.!.!.!.",
"!.E.!.E.E.!.!.!.!.E.E.E.!._._._.1.w Y 8 a 8 Y _ 5 j u B 5.u.7.;.5.u.u.7.x.A.5.*._ [ a ;.'.!.!.!.!.E.!.E.E.E.E.E.E.E.!.!.!.!.E.!.",
"E.E.E.Y.E.!.!.!.E.!._.E.!.!._._.Y.g b B X j _ +.[ a w z a R r.r.r.r.5.u.x.v.u.R Y H 1.E._._.!.!.E.E.E.E.Y.Y.Y.Y.E.E.E.!._.!.!.!.",
"E.Y.E.Y.Y.E.!.E.!.E.Y.E._._.E._.}.G.b j j X _ p.7.#.X % > X X X X X H r.A.A.u.A A 7.E.'.!.!.!.E.E.Y.Y.Y.Y.Y.K.Y.Y.Y.E.E.!.!.!.!.",
"Y.Y.E.Y.E.E.Y.E.E.Y.Y.E.!.E.!.!.!.$XE.| H g X +.A.m.r._ [ ;.7.r.1.7.x.Y.K.A.7.B p.!.'._.!.!.!.E.Y.Y.Y.K.Y.Y.Y.Y.Y.Y.E.E.!.E.E.E.",
"Y.Y.E.K.Y.E.E.E.Y.Y.Y.Y.E.!.!._.'.!.oX_.7.R > 8 | p.A.A.v.A.K.G.Y.Y._.E.K.u.| r.Y.}._.!._.!._.!.E.Y.K.Y.K.Y.Y.Y.Y.Y.E.!.!.!.E.E.",
"Y.Y.E.K.Y.E.Y.K.K.Y.Y.K.Y.!.!.!.!._._.'.'.x.A # B L A | +.+.;.5.r.v.p.p.1.#.r.A.'.'.E.!._.!.!.E.E.Y.Y.Y.Y.Y.Y.Y.Y.Y.E.!.!.!.E.!.",
"Y.Y.E.K.E.E.E.Y.K.Y.K.Y.E.!.!.!.E._.!.'.'.}.Y.#.; A Y Y H Y _ H H z B #.*.*.5._._.!._._._.!.!.!.E.Y.Y.Y.Y.E.E.Y.Y.E.E.!.!.!.!.!.",
"Y.Y.Y.K.Y.Y.Y.K.K.K.Y.E.!.!.!.!.E.!.!._._.!.}.'.x.A X 8 H H A H b a b _ R X u.'._.!.'._.!.!._.!.!.E.E.E.E.E.E.E.E.E.!.!._.!.!._.",
"E.E.E.K.Y.Y.K.K.Y.K.Y.!.!.E.!.!._.!.!.!.'.!._._.}._.x.H X X 5 X # X X # X B !.'._.!._.!.!.E.E.!.E.E.E.E.E.E.!.E.!.E.!.!.!._.!._.",
"Y.Y.Y.K.Y.E.E.E.E.E.E.!.!.!.!.!.!.!._.!.!.'.'._._.'.}.'.u.w X > > X ; X # m.}.'._._._._._._.!.!.E.E.E.!.!.!.!.!.!.!.!._._._._._.",
"E.E.!.Y.E.E.E.E.E.E.!.E.!._.!.!.!.!._._._._._.}._.'._.'.}._.5.X X a X b g.oXoX'._.'._._.!.!.!.!.!.!.!.!._.!._._._._.!._._._.'.'.",
"!.!.!.Y.E.E.!.E.E.!.!.!.!.!.!.!.!._._._._.'.'.}.}.}.}._._.oX}.Y.H X ^ m._.oXoX'.'.}.'._._._.!.!.!._._._._._._._._._.'._.'.'.}.'.",
"_._._.!.!._._._._.!._._._.'._._.!._._.'.'.'.'.}.'.'.oXoX}.'.}.$X'.g.v.!.oXoXoXoX}.}.'.'.'.'._._._.'.'.'.'.'.'.'.'.'.'.'.'.'.'.}.",
"_._.'.!._.'._.'._.'.'.'.'.'.'._._._._.'.}.}.}.}.oX}.}.oXoXoXoX$X$X*X}._.oX}.oX}.}.}.}.}.'.'.'.'.'.'.'.'.'.'.'.'.}.}.}.}.}.}.}.}.",
"_._.'._._.'.'.}.}.}.'.}.'.}.'.'.'._.'.'.}.}.}.oX}.$XoX}.$X*X$X$X$X*XoXoX$XoXoX$XoXoX}.}.}.}.'.'.'.'.'.}.}.}.}.}.}.}.}.oXoX}.oXoX",
"}.}.oX'.'.}.oXoX}.oX}.}.}.}.}.'.'.}.}.}.}.}.oXoXoX$X$X$X$X$X$X*X-X$XoX$XoX$XoXoXoX$XoX}.oX}.}.}.}.}.}.oXoX}.oXoXoXoXoXoXoXoXoXoX",
"oX}.oX}.}.}.}.oX}.}.}.}.'.}.}.}.}.}.}.}.}.oX$X$X*X$X$X$X*X*X$X*X$X*X$X*X$X*X-XoXoX$X$XoXoXoXoXoXoXoXoXoX$XoXoXoXoXoX$X$X$X$X$X$X",
"oXoXoX}.}.oXoXoX}.oXoX}.}.}.}.oX}.oXoXoX}.oX$X*X*X*X-X*X$X*X-X*X-X-X*X*X*X$X$X*X$X$X$X$X$X$X$XoXoX$X$X$X*X*X*X*X*X*X*X*X-X*X$X*X",
"$XoX$X}.oXoXoXoXoXoXoXoXoXoX$XoXoXoXoXoXoX$X*X*X2X*X*X2X-X-X-X*X2X*X-X*X-X2X2X*X$X*X*X*X*X*X*X*X*X*X*X*X-X-X-X-X-X-X2X-X2X-X*X*X",
"-X*X*XoXoXoXoXoXoXoXoXoXoXoXoXoXoXoXoXoX$X$X*X-X2X2X-X2X2X-X2X2X2X2X2X-X2X2X2X2X2X-X-X-X-X-X*X*X-X-X-X2X2X-X2X2X2X2X5X2X2X2X-X2X",
"2X-X2X$X*X*XoX$XoXoXoXoXoX$X$XoXoX$X$X$X$X*X-X2X2X2X2X-X2X2X2X2X2X2X2X2X2X5X2X2X-X-X2X-X2X-X2X2X2X-X2X5X2X5X5X5X5X5X8X5X5X5X2X5X",
"5X-X2X$X-X-X*X*X$X$X$XoX$X$X$X$X*X$X*X*X*X-X2X2X5X5X5X2X5X5X5X5X5X5X5X5X5X5X8X5X2X2X2X2X5X5X5X5X5X5X5X8X8X8X8X8X8X8X8X8XrX8X5X8X",
"rX2X2X*X-X-X-X-X-X-X*X$X$X*X*X-X*X-X-X-X-X2X5X5X5X8X8X5X5X5X5X5XrX8X8X8X8X8X8X8X5X5X5X5X8X8X8X8X8X8X8XrXrXrXyXyXyXrXyXyXyXyX8XrX",
"yX8X8X2X-X2X2X-X2X-X-X*X*X-X-X2X-X2X2X2X5X8X8X8XrX8X8X8XrX8X8XrXrXrX8XrXyXyXrXrX8XrXrXrXyXyXyXyXyXyXyXpXpXyXpXpXgXpXpXgXpXpXyXyX",
"pXrXrX8X5X5X5X5X2X2X2X2X2X-X2X2X2X2X2X2X5X8XrXrXyXyXrXrXrXrXrXyXrXyXyXyXpXpXpXyXpXpXpXpXpXpXgXpXpXpXgXgXgXgXgXgXkXgXkXgXkXgXpXgX",
"gXyXpX8X8X8X8X5X5X5X5X5X5X5X2X5X5X5X5X5X8XrXyXpXpXpXpXpXpXpXpXpXgXpXgXgXgXkXkXgXgXkXgXgXgXkXkXkXkXkXkXkXkXkXkXkXcXcXcXkXcXkXgXkX",
"cXpXgXrX8XrXrX8X8X8X5X5X5X5X5X5X8X8X8X8XrXrXpXgXgXkXkXgXgXgXgXkXkXkXgXkXkXcXcXkXkXcXkXkXkXcXcXcXkXcXkXcXcXcXcXBXBXcXBXcXBXkXkXBX",
"cXgXkXyXyXpXyXyXrXrX8X8X8X8XrXrXrXrXyXyXpXgXkXcXcXkXcXcXcXkXcXkXcXcXcXcXcXcXcXcXkXcXcXcXcXBXkXcXcXcXcXcXBXcXcXBXBXBXVXBXBXBXcXcX",
"BXcXcXgXgXgXpXgXpXyXyXyXyXrXrXrXyXpXpXpXgXgXcXcXBXBXBXBXBXBXBXBXBXBXcXcXBXBXcXBXcXcXBXcXBXcXBXBXcXBXVXBXBXBXVXVXVXVXDXVXVXVXBXVX",
"VXcXBXgXkXkXkXkXgXgXgXpXyXyXrXrXpXpXgXgXkXcXBXBXBXBXVXVXVXVXVXDXVXVXBXBXVXVXVXBXBXBXBXBXBXBXBXVXBXVXVXDXVXVXVXVXDXDXDXVXDXVXcXVX",
"DXBXVXkXcXBXcXcXcXcXkXgXpXpXpXpXpXpXgXkXkXcXBXVXVXVXVXVXVXDXDXDXDXDXVXVXDXDXVXVXBXVXBXVXBXBXBXVXVXVXVXLXDXDXDXDXDXDXDXDXDXVXBXVX",
"DXBXVXcXBXBXcXcXcXcXkXgXgXpXpXgXyXpXgXkXkXcXBXVXVXDXVXDXDXDXDXDXLXLXDXDXDXDXLXDXVXDXVXVXVXDXDXVXVXDXDXDXDXDXDXDXDXDXDXDXDXVXVXDX",
"DXBXVXcXcXBXcXBXcXcXkXpXpXyXyXyXpXyXpXgXcXBXVXDXDXDXDXDXDXLXLXLXLXLXDXLXLXDXDXLXLXDXDXDXDXDXDXDXLXDXDXDXLXDXDXDXDXDXLXDXDXDXVXVX",
"LXVXDXBXBXBXBXBXcXcXkXgXpXyXyXyXrXrXyXpXgXcXBXVXVXVXVXVXVXDXDXLXDXDXDXDXDXDXDXDXLXDXDXDXDXDXLXDXDXDXDXDXLXDXLXDXLXDXLXDXLXVXVXVX",
"DXVXVXcXcXcXcXBXcXcXkXgXpXyX8XrXrX8X8XrXpXgXkXcXBXBXBXVXVXVXDXDXVXVXVXVXVXVXVXVXVXVXVXVXVXVXVXVXVXVXDXDXDXDXDXDXLXDXDXDXDXLXDXDX"
};
