/* XPM */
static char *_c4a4908e1ab4727d7e5c0e2cba0d307q56h3sbFOvMUli6z[] = {
/* columns rows colors chars-per-pixel */
"64 64 249 2 ",
"   c black",
".  c #010101",
"X  c #020202",
"o  c gray1",
"O  c #040404",
"+  c gray2",
"@  c #060606",
"#  c #070707",
"$  c gray3",
"%  c #090909",
"&  c gray4",
"*  c #0B0B0B",
"=  c #0C0C0C",
"-  c gray5",
";  c #0E0E0E",
":  c gray6",
">  c #101010",
",  c #111111",
"<  c gray7",
"1  c #131313",
"2  c gray8",
"3  c #151515",
"4  c #161616",
"5  c gray9",
"6  c #181818",
"7  c #191919",
"8  c gray10",
"9  c #1B1B1B",
"0  c gray11",
"q  c #1D1D1D",
"w  c #1E1E1E",
"e  c gray12",
"r  c #202020",
"t  c gray13",
"y  c #222222",
"u  c #232323",
"i  c gray14",
"p  c #252525",
"a  c gray15",
"s  c #272727",
"d  c #282828",
"f  c gray16",
"g  c #2A2A2A",
"h  c gray17",
"j  c #2C2C2C",
"k  c #2D2D2D",
"l  c gray18",
"z  c #2F2F2F",
"x  c gray19",
"c  c #313131",
"v  c #323232",
"b  c gray20",
"n  c #343434",
"m  c #353535",
"M  c gray21",
"N  c #373737",
"B  c gray22",
"V  c #393939",
"C  c #3A3A3A",
"Z  c gray23",
"A  c #3C3C3C",
"S  c gray24",
"D  c #3E3E3E",
"F  c #3F3F3F",
"G  c gray25",
"H  c #414141",
"J  c gray26",
"K  c #434343",
"L  c #444444",
"P  c gray27",
"I  c #464646",
"U  c gray28",
"Y  c #484848",
"T  c #494949",
"R  c gray29",
"E  c #4B4B4B",
"W  c #4C4C4C",
"Q  c gray30",
"!  c #4E4E4E",
"~  c gray31",
"^  c #505050",
"/  c #515151",
"(  c gray32",
")  c #535353",
"_  c gray33",
"`  c #555555",
"'  c #565656",
"]  c gray34",
"[  c #585858",
"{  c gray35",
"}  c #5A5A5A",
"|  c #5B5B5B",
" . c gray36",
".. c #5D5D5D",
"X. c gray37",
"o. c #5F5F5F",
"O. c #606060",
"+. c gray38",
"@. c #626262",
"#. c gray39",
"$. c #646464",
"%. c #656565",
"&. c gray40",
"*. c #676767",
"=. c #686868",
"-. c DimGray",
";. c #6A6A6A",
":. c gray42",
">. c #6C6C6C",
",. c #6D6D6D",
"<. c gray43",
"1. c #6F6F6F",
"2. c gray44",
"3. c #717171",
"4. c #727272",
"5. c gray45",
"6. c #747474",
"7. c gray46",
"8. c #767676",
"9. c #777777",
"0. c gray47",
"q. c #797979",
"w. c gray48",
"e. c #7B7B7B",
"r. c #7C7C7C",
"t. c gray49",
"y. c #7E7E7E",
"u. c gray50",
"i. c #808080",
"p. c #818181",
"a. c gray51",
"s. c #838383",
"d. c #848484",
"f. c gray52",
"g. c #868686",
"h. c gray53",
"j. c #888888",
"k. c #898989",
"l. c gray54",
"z. c #8B8B8B",
"x. c gray55",
"c. c #8D8D8D",
"v. c #8E8E8E",
"b. c gray56",
"n. c #909090",
"m. c gray57",
"M. c #929292",
"N. c #939393",
"B. c gray58",
"V. c #959595",
"C. c gray59",
"Z. c #979797",
"A. c #989898",
"S. c gray60",
"D. c #9A9A9A",
"F. c #9B9B9B",
"G. c gray61",
"H. c #9D9D9D",
"J. c gray62",
"K. c #9F9F9F",
"L. c #A0A0A0",
"P. c gray63",
"I. c #A2A2A2",
"U. c gray64",
"Y. c #A4A4A4",
"T. c #A5A5A5",
"R. c gray65",
"E. c #A7A7A7",
"W. c gray66",
"Q. c #A9A9A9",
"!. c #AAAAAA",
"~. c gray67",
"^. c #ACACAC",
"/. c gray68",
"(. c #AEAEAE",
"). c #AFAFAF",
"_. c gray69",
"`. c #B1B1B1",
"'. c #B2B2B2",
"]. c gray70",
"[. c #B4B4B4",
"{. c gray71",
"}. c #B6B6B6",
"|. c #B7B7B7",
" X c gray72",
".X c #B9B9B9",
"XX c gray73",
"oX c #BBBBBB",
"OX c #BCBCBC",
"+X c gray74",
"@X c gray",
"#X c gray75",
"$X c #C0C0C0",
"%X c #C1C1C1",
"&X c gray76",
"*X c #C3C3C3",
"=X c gray77",
"-X c #C5C5C5",
";X c #C6C6C6",
":X c gray78",
">X c #C8C8C8",
",X c gray79",
"<X c #CACACA",
"1X c #CBCBCB",
"2X c gray80",
"3X c #CDCDCD",
"4X c #CECECE",
"5X c gray81",
"6X c #D0D0D0",
"7X c gray82",
"8X c #D2D2D2",
"9X c LightGray",
"0X c gray83",
"qX c #D5D5D5",
"wX c gray84",
"eX c #D7D7D7",
"rX c #D8D8D8",
"tX c gray85",
"yX c #DADADA",
"uX c gray86",
"iX c gainsboro",
"pX c #DDDDDD",
"aX c gray87",
"sX c #DFDFDF",
"dX c gray88",
"fX c #E1E1E1",
"gX c #E2E2E2",
"hX c gray89",
"jX c #E4E4E4",
"kX c gray90",
"lX c #E6E6E6",
"zX c #E7E7E7",
"xX c gray91",
"cX c #E9E9E9",
"vX c #EAEAEA",
"bX c gray92",
"nX c #ECECEC",
"mX c gray93",
"MX c #EEEEEE",
"NX c #EFEFEF",
"BX c gray94",
"VX c #F1F1F1",
"CX c gray95",
"ZX c #F3F3F3",
"AX c #F4F4F4",
"SX c gray96",
"DX c #F6F6F6",
"FX c #FEFEFE",
"GX c white",
/* pixels */
"*X2X<X:X<X2X<X2X7XwXwXwXwXrXfXcXcXNXNXNXNXNXNXNXBXNXNXNXBXSXBXkXBXcXkXkXcXcXcXcXcXkXkXkXkXkXfXfXfXfXfXfXkXkXkXkXcXfXwX7X7XrXiXkX",
"(.}.}._.}.}.}..X+X*X:X<X<X2XwXiXkXkXcXNXNXcXcXNXcXNXBXSXcXfXcXBXfXfXkXcXBXBXcXfXcXkXfXiXfXiXfXiXiXrXrXiXiXfXfXfXfXfXrXwXwXrXfXfX",
"(._._.(._.}._.}.}..X.X+X:X<X2XwXfXkXkXNXcXNXcXNXBXcXkXNXNXcXcXNXkXcXkXfXfXNXNXcXkXfXfXrXrXiXrXiXwXwXrXrXiXkXkXfXfXfXfXiXiXiXfXfX",
"}.*X+X.X+X*X+X*X.X.X+X*X:X2X2XwXfXfXcXcXcXcXcXcXcXcXcXcXNXcXkXBXcXcXNXNXNXNXcXfXfXfXrXrXrXrXiXrXwXrXrXiXfXkXkXkXfXkXkXkXfXiXfXfX",
".X*X*X.X*X*X+X*X+X+X+X:X:X2X7X7XiXfXkXkXcXcXcXcXNXBXNXcXBXSXkXfXcXfXfXkXfXrXrXiXwXrXrXrXrXiXiXrXrXrXiXfXfXkXkXkXkXkXkXkXfXiXfXfX",
"}.*X*X.X*X+X+X*X*X*X:X<X<X2XwXrXiXfXkXkXkXfXkXcXiXcXkXiXcXfXiXcXcXcXkXcXfX7X7XrX7XwXrXiXiXrXrXrXiXiXiXiXfXkXkXkXkXcXcXkXiXiXiXfX",
".X*X*X*X:X*X+X+X<X7XwXwXwXrXrXfXiXfXfXfXfXfXkXkXBXcX:XL.h.$.<.Z.<XwXiXiXrXwXwX<XwXwXrXiXrXrXiXiXiXfXiXfXkXkXkXkXcXkXkXfXfXfXkXfX",
"}.*X*X+X:X*X.X+XrXiXfXiXiXrXiXfXfXfXkXfXfXkXkXkX+X8.u w H R R :.J.L.Z.t.h.(.7XwXrXiXiXiXrXiXiXfXfXfXfXfXkXkXcXcXkXkXkXkXcXkXkXkX",
"_.+X*X+X+X}.}.+X2X7XrXiXiXiXiXfXfXiXfXNXrXNXiX4.$ u n c F :.F._.2XwX}.i.. o.n.}.rXfXwXfXiXiXfXcXfXfXfXfXkXkXkXkXkXkXkXfXkXcXcXNX",
"(.}.+X.X.X}._..X:X<X<X<X2XwXiXfXfXfXiXiXcXkX$.- w l | k.(.:XwXkXkXNXBXkX7X| 4.k._.wXkXiXrXkXcXrXkXfXfXfXkXkXkXkXkXkXfXfXkXkXcXNX",
"J.~._.}..X_.(._..X.X.X.X.X*X2XwXfXfXiXkXBX~.$ h 8.L.2XfXiXfXcXBXfXSXiXGXBX.X:.F.}..XiXfXiXkXkXiXfXfXfXkXkXkXkXkXkXcXkXkXkXcXcXcX",
"h.n.F.L.L.J.Z.J.L.L.T.T.(._..X*XrXiXiXBXiX/ u Z.:XwXrX7XrXkXfX2XkXNXkXNXrXGXT.k.}.~.rXNXkXfXfXcXkXkXkXcXcXcXcXcXcXcXcXNXNXNXcXNX",
"h.h.i.t.i.w.t.h.Z.Z.F.J.T.(..X+X:XrXiXBX+X< $..X<X<X7XiXrXwXrXNXfXBXBXBXSXNXcXZ.F.L.2XBXkXfXkXkXcXkXcXcXcXNXcXcXcXNXNXNXNXNXNXcX",
"k.h.8.4.4.4.w.n.J.L.T.~.~._.+X:X2XwXrXBX}.. k.+X2X2X7XrXiXiXrXwXiXNXkXcXkXNXcXfX(.Z.F.iXcXcXkXkXcXNXcXNXNXNXcXcXcXcXcXNXcXNXcXNX",
"h.t.4.4.4.4.w.x.Z.F.T._..X:X2XwXiXwXiXBX<X2 h.+X_.<XiXiXiXfXiX7X<X*XkXwXBXBXkXBXfX_.t.rXNXcXkXNXcXcXNXNXNXcXcXcXcXkXkXkXkXcXcXcX",
"8.8.<.:.:.@.o.:.<.t.Z.(.*X7XrXiXiXkXkXiXfX@.k.L.h.4.w.T.7X2XT.t.n.x.Z.7XfXcXBXcXkXNX(.cXkXkXcXkXcXcXcXcXNXNXcXkXfXfXfXkXfXfXkXkX",
"8.:.@.@.$.$.$.$.:.:.t.L.+X7XiXiXfXrXfXcXfXF.k.T.T.J.4.F..X*X:X}.~.(.+X7XrXkXNXNXNXwXcXrXfXSXwXNXcXcXkXcXkXkXfXfXiXfXfXiXiXfXcXkX",
":.o.` ` o.@.$.:.$.<.k.J.(.*XwXrXfXrXiXfXNXJ.Z.T.x.<.n $.(.fXkX<X:.w.F.+XwXkXNXcXcXNXfX2XwXfXkXkXcXcXcXkXkXkXfXkXfXkXfXfXfXcXNXNX",
"o.` / / ` ` o.@.o.4.n.L.(.*X7X2X2X2XwX7XcXn.k.J.J.(.F.(..XwXBXkX7X7XiXcXcXNXNXfXNXfX.X<XfXrXNXfXcXkXcXcXkXkXkXfXfXcXcXcXcXcXfXiX",
"` / / ` ` / / / | t.(.*X*X:X<X*X:X<XiXwXfXL.x._.:X2X*X*X_.wXSXcXiX7XwXrXiXcXNXNXNXiX}.rXSXiXcXkXkXcXkXcXcXcXcXkXkXkXNXcXNXNXiXwX",
"/ W W / / W / / / h.+XwX:X+X*X+X+X+XwX7XiX<XF.+X:X7X2X<X+XrXSXSXiX2X2X7XrXkXcXfXfXNXcXkXcXfXkXkXkXcXcXcXcXNXcXcXcXcXkXkXcXBXNXfX",
"/ R H H U W ` | | <.Z._._..X+X*X*X}.*X<X7XrXT.(.+X*X}..X(.+X+X.XiX7X<X2X7XiXcXcXkXkXNXkXkXfXrXNXkXkXkXkXkXcXcXNXNXcXNXNXBXNXcXrX",
"W F n c C H U R W W o.4.i.n.~.}.*X:X*X2XrXiX<X(.~.+X}.F.o.` i.*XcXkXiXrX7XwXfXkXNXrXwXiXcXkXrXcXfXfXfXfXkXkXcXcXcXNXBXkXrX2X:X+X",
"U C l h c c c c F H / | W ` i.(.~.:X*X7XiXwXBX.XL.T.Z.4.F l H k.*X2XiXcXfXiXcXcXiXNXcXrXiXfXfXrXiXfXiXfXfXkXcXcXNXNXiX*X(.T.(.}.",
"F n c l h i l l c F U / ` W :.n.(.}.+X<X7XiXrX7X(.T.H W / W :.<.8.| (.NXrXcXBXfXcXiXiXrXwXrXfXiXiXiXfXfXfXiXfXkXfXiX<X(.J.~._.}.",
"C c h h l n n F F H U R W W | <.Z.T..X:X2X2X7X7X_.n.i.@.i.h.n.iXfX7X:XkXNXrXkXfXcXfXkXcXrXrXiXfXfXfXfXiXfXkXcXcXrX:X~.Z.Z.L._..X",
"c h i h c C H H H U F F R W W W o.t.L..X+X*X:X7X*XF.k.4.n.w.4.+XiXfXiXrXfXfXrXkXSXfXrXiXcXrX2XwX7XrXiXfXiXkXkXfXkX*XL.F.F.J.T._.",
"c h u h c n n n F H F F U U H U H $.n.~.(.T.L.L.(.~.n.n.Z.n.J.7XkXcXcXNX2X*XNXNXfX<X.X:XiX:X(.(.}.*X7X2X7XiXfXfXwX+XT.L.L.L.~._.",
"h i i h i i u i l n C F H C H ` :.8.k.F.n.i.$.| 8.<.F.T.F.h.i.L.*X:XrX}.*XGXkX*XT.T.~..X+XJ.k.n.x.F.J.Z.Z.~.:XwX2X<X.X~.J.J.L.~.",
"h i i u u w 9 w w i c C U U ` 8.n.i.4.:.o.| / R | o.$.:.h.| W . @.T.fXcXBX7Xt.$.h.k.F.~.(.F.h.i.w.t.t.w.8.t.n.T.7XrX2X(.Z.Z.L.L.",
"h i u w w 9 2 2 2 9 u l U | $.4.4.o.U C C H W / R / / k.T.l w..X<XGXiXNXn.+ U i.:.<.w.h.k.n.n.k.t.t.t.i.w.4.w.i.~.}._.L.n.L.(._.",
"c i w w 9 9 2 2 9 w 9 u F ` | / c c l n C n n F n R C o.2XkXfXSXSXkXkX| + H U H U W o.o./ :.k.Z.w.<.:.4.<.$.:.w.h.x.x.h.k.x.J.J.",
"h i w 9 9 2 2 < 9 9 u i c F U W c c l h h l c n n U c | t.7XfXNXNXrXU . i C C c l F F n C R $.k.~.J.x.o.R <.<.$.w.t.t.w.<.i.:.k.",
"h i w 9 9 w 2 2 < < 9 w h c C C l l i i u i i i h H i n 2 4.BXkXfX- $ l 9 < F 9 h h i i c H ` :.h.Z.*X.Xk.@.o.4.$.<.$.8.:.<.w.8.",
"l i w w w 9 2 2 < < < 9 w u i h i i u w 9 9 9 9 i w 2 + 2 . *XiXC + u 2 u 2 2 < w 9 < 9 h c F W W k.~.(.:XZ.R U @.R | W :.@.8.w.",
"l i u 9 9 9 9 2 - - < 2 2 9 w w 2 9 2 2 < - < - < - . + w . U o.. h 2 . < w 2 2 - < < 9 w 9 h U @.$.k.J.(.:XJ.R C R R R W <.o.i.",
"h u w 9 9 9 < < - - - < < < 2 2 < < < < < $ $ $ . . + . . w . . - $ $ - $ < 2 - - < < 9 2 < u F :.o.w.n.Z.(.*X~.l n U F W U <.@.",
"i u w 2 2 2 < - - $ $ $ - < - - < - - - $ + + . . . < . . $ . <.` + u $ - $ + + - < $ $ - < 9 c l | / @.n.x.n._.n.+ F n R ` W @.",
"i w 9 2 2 < < - - $ + + $ $ - $ - - $ $ $ + . . + + . < + . + ~.x.. $ + . $ - $ $ - + . $ < 2 u i c n W :.k.F.w._.w.. / H R @.| ",
"i w 9 2 2 < - - - $ + + + + + $ + $ $ $ $ + + + + . . . $ . < . . < - . $ $ . $ . $ + . + $ < w c c u n / 8.F.x.n.}.| u U R o.W ",
"l u 9 2 < < - - $ $ + + $ $ $ $ + + + + . . + . + . + . + . + . $ $ + + + + + + $ + . + + + < u l l w l l U k.w.F n.L.w R H W | ",
"l u 9 2 2 < - - $ $ + + $ $ $ $ + + + . . + . + . + . + . + . + + + . + + + + + + . . + + . - 9 u l w u u i o.h.o.l Z.:.w W U / ",
"h u w 2 2 - - $ $ $ + + + $ $ $ . + . + + . + . + . + . + . + . . . . + + $ $ + + . + + + + - 9 2 l w 9 w 2 c w.@.w U x.C F W W ",
"l i w 9 2 < - $ $ + + + + + + + + + + + . + . + . + . + . + . + . . . + + $ + + + . + $ $ + $ 2 2 w w 2 u 9 2 W o.U + @.<.h ` W ",
"l i w 9 2 - - $ $ $ + + + + + + + + + + + . + . + . + . + . + . + . . + + + + . . . . + + . + - 9 - 9 < 9 w - i | F < n / n R H ",
"c h u 9 2 - - $ $ $ + . + + . + + . + . . + . + . + . + . + . + . + . + + . . . . . . . . + + $ < - w < $ 2 2 2 F H h h c U C U ",
"c h u 9 < - $ - $ + + + . + + + . + + + + . + . + . + . + . + . + . . . . . . . + + + . + + + $ - < 9 < - < 2 9 9 H l l c H n U ",
"c h u 9 < $ $ - $ + . . + . . . + + + + . + . + . + . + . + . + . . . . . + + + . . . . . . + + + - - $ 2 < - < 2 9 n l h F C C ",
"n u i w < < $ $ . . . . . . . . . . . . . + + . . . . . . . . . . . . . . . . . + . . . . . + . + $ < < 2 < < < - w h l n F F C ",
"n u u 2 < - $ $ + + + + + . . . . . . . . + . + . . . . . . . . . . . . . . . . . . . . . . . + + $ - < < < < < 2 w h l C H F C ",
"n w w 2 < < $ $ $ $ $ + + + + + . . . + . + . . . . . . . . . . . . . . . . . . . . . . . + + . + + $ - - - < - 2 9 u i n H F n ",
"C u u 9 - < $ $ $ $ $ + + + . . + . . . . . . + . . . . . . . . . . . . . . . . . + . . . . . + + + + $ $ - - < 2 w w u l C F F ",
"F u w 2 - < $ $ $ $ $ + + . . + . . . . . . + . . . . . . . . . . . . . . . . . . . . . . . + . + + $ $ $ - < < 2 w u h l F H R ",
"n w 9 < - < - $ $ + + + + . . . + . + . + . . . . . . . . . . . . . . . . . . . . + . . . + . + + + + $ $ - < 2 < 9 u i l n U W ",
"n w 2 < - < $ $ + + + + + . + . . + . + . . . . . . . . . . . . . . . . . . . . + . . . . . + . + + + $ $ - < < - 2 9 u h n H R ",
"C u w 2 < < - $ + $ + + + + + + + . + . . . . . . . . . . . . . . . . . . . . . . . . . . . . + . . + + $ - - < < 2 2 u l C U W ",
"C i 9 2 < < < - - $ + + + . + $ + . + + . + + . . . . . + + . . . . . . . . . . . . + . . . + . . + + $ $ - < 2 9 9 w u h C U R ",
"n i 9 9 < < < - - - $ + $ + + + + + + . + . . + . . . . . + . . + + . . + . + + + . . . . . . . . + + $ - < 2 9 2 9 u i l C U R ",
"n i w 9 2 2 2 < < $ $ $ $ + + + + . + . . . + . . . . . . + + . + + . . . + . + + . . . . . . . + $ $ $ - < 2 w w u u i l C H R ",
"n h w w 9 9 9 2 - - - - $ + + $ + + . . + . . . . . . . . . . . . . + + + . + . . + . . . + + + $ $ - - < < 2 9 i i i h l C U U ",
"n i u w 9 2 9 2 < - $ - $ $ + $ + + + + . . + . + . . . + + + + . . + + + + . . + + . + + + + $ $ - - - < < 9 9 i i i i l C U U ",
"C h u w 9 2 9 < 2 - - - - $ $ < + + + + + + + + + + . + + + + + + + + $ + + + + + + + + + + $ $ $ $ - - < 2 w u u u u u h n F U ",
"U n l i 9 2 9 2 2 - $ $ $ - - < + $ $ + + $ $ + + + + + $ $ $ + + + $ $ $ $ + + + + + $ + $ $ $ - - < < 2 9 w u w u i h l n C F ",
"W F n l w 9 9 9 2 < - - $ $ - 2 $ $ $ $ + $ + + $ + $ $ $ $ $ + + $ $ $ - $ $ $ $ $ $ $ $ $ - $ < 2 2 < 2 2 9 w u i h l c n C n "
};
